<?xml version="1.0" encoding="UTF-8" standalone="no"?>
<svg
   xmlns:dc="http://purl.org/dc/elements/1.1/"
   xmlns:cc="http://creativecommons.org/ns#"
   xmlns:rdf="http://www.w3.org/1999/02/22-rdf-syntax-ns#"
   xmlns:svg="http://www.w3.org/2000/svg"
   xmlns="http://www.w3.org/2000/svg"
   xmlns:xlink="http://www.w3.org/1999/xlink"
   xmlns:sodipodi="http://sodipodi.sourceforge.net/DTD/sodipodi-0.dtd"
   xmlns:inkscape="http://www.inkscape.org/namespaces/inkscape"
   width="256"
   height="256"
   viewBox="0 0 67.733331 67.733331"
   version="1.1"
   id="svg8"
   inkscape:version="1.0.2 (e86c870879, 2021-01-15)"
   sodipodi:docname="instant_noodle.svg">
  <defs
     id="defs2">
    <linearGradient
       inkscape:collect="always"
       id="linearGradient3046">
      <stop
         style="stop-color:#00b3de;stop-opacity:1;"
         offset="0"
         id="stop3042" />
      <stop
         style="stop-color:#00b3de;stop-opacity:0;"
         offset="1"
         id="stop3044" />
    </linearGradient>
    <linearGradient
       inkscape:collect="always"
       xlink:href="#linearGradient3046"
       id="linearGradient3048"
       x1="130"
       y1="250"
       x2="130"
       y2="110"
       gradientUnits="userSpaceOnUse" />
  </defs>
  <sodipodi:namedview
     id="base"
     pagecolor="#ffffff"
     bordercolor="#666666"
     borderopacity="1.0"
     inkscape:pageopacity="0.0"
     inkscape:pageshadow="2"
     inkscape:zoom="1.979899"
     inkscape:cx="83.945056"
     inkscape:cy="80.93998"
     inkscape:document-units="px"
     inkscape:current-layer="layer1"
     inkscape:document-rotation="0"
     showgrid="true"
     units="px"
     inkscape:window-width="1343"
     inkscape:window-height="908"
     inkscape:window-x="144"
     inkscape:window-y="47"
     inkscape:window-maximized="0">
    <inkscape:grid
       type="xygrid"
       id="grid1402" />
  </sodipodi:namedview>
  <metadata
     id="metadata5">
    <rdf:RDF>
      <cc:Work
         rdf:about="">
        <dc:format>image/svg+xml</dc:format>
        <dc:type
           rdf:resource="http://purl.org/dc/dcmitype/StillImage" />
        <dc:title></dc:title>
      </cc:Work>
    </rdf:RDF>
  </metadata>
  <g
     inkscape:label="Layer 1"
     inkscape:groupmode="layer"
     id="layer1">
    <path
       id="rect831"
       style="fill:#dddddd;fill-opacity:1;stroke-width:1.32292;stroke-linecap:round;stroke-linejoin:round;stroke-dashoffset:3.5007;paint-order:stroke markers fill"
       d="M 13.229166,5.2916665 H 54.23958 L 47.624998,62.177081 H 19.843749 Z"
       sodipodi:nodetypes="ccccc" />
    <path
       id="path2936"
       style="fill:#ae0f0f;fill-opacity:1;stroke:none;stroke-width:3;stroke-linecap:round;stroke-linejoin:round;stroke-dashoffset:3.5007;paint-order:stroke markers fill"
       d="M 54.070312 55 L 75 235 L 180 235 L 200.92969 55 L 54.070312 55 z "
       transform="scale(0.26458332)" />
    <rect
       style="fill:#ae0f0f;fill-opacity:1;stroke:none;stroke-width:0.79375;stroke-linecap:round;stroke-linejoin:round;stroke-dashoffset:3.5007;paint-order:stroke markers fill"
       id="rect2939"
       width="42.333328"
       height="1.3229165"
       x="12.435416"
       y="5.2916665"
       ry="0.52916664" />
    <path
       id="rect2941"
       style="fill:#de8b00;fill-opacity:1;stroke:none;stroke-width:0.84614;stroke-linecap:round;stroke-linejoin:round;stroke-dashoffset:3.5007;paint-order:stroke markers fill"
       d="m 41.71564,20.132924 c -0.515409,0.01497 -1.036768,0.131008 -1.536857,0.359151 L 17.310412,30.925028 c -0.384358,0.175347 -0.726068,0.404315 -1.022676,0.672827 l 1.037663,8.921419 4.610571,10.106361 c 0.912573,2.000358 3.257718,2.876277 5.258077,1.963703 L 49.919273,42.222013 50.840147,34.300534 45.436858,22.455779 C 44.752429,20.955511 43.261867,20.087996 41.71564,20.132924 Z" />
    <path
       id="path2945"
       style="color:#000000;font-style:normal;font-variant:normal;font-weight:normal;font-stretch:normal;font-size:medium;line-height:normal;font-family:sans-serif;font-variant-ligatures:normal;font-variant-position:normal;font-variant-caps:normal;font-variant-numeric:normal;font-variant-alternates:normal;font-variant-east-asian:normal;font-feature-settings:normal;font-variation-settings:normal;text-indent:0;text-align:start;text-decoration:none;text-decoration-line:none;text-decoration-style:solid;text-decoration-color:#000000;letter-spacing:normal;word-spacing:normal;text-transform:none;writing-mode:lr-tb;direction:ltr;text-orientation:mixed;dominant-baseline:auto;baseline-shift:baseline;text-anchor:start;white-space:normal;shape-padding:0;shape-margin:0;inline-size:0;clip-rule:nonzero;display:inline;overflow:visible;visibility:visible;isolation:auto;mix-blend-mode:normal;color-interpolation:sRGB;color-interpolation-filters:linearRGB;solid-color:#000000;solid-opacity:1;vector-effect:none;fill:#c34600;fill-opacity:1;fill-rule:nonzero;stroke:none;stroke-width:3.77953;stroke-linecap:butt;stroke-linejoin:miter;stroke-miterlimit:4;stroke-dasharray:none;stroke-dashoffset:0;stroke-opacity:1;color-rendering:auto;image-rendering:auto;shape-rendering:auto;text-rendering:auto;enable-background:accumulate;stop-color:#000000"
       d="M 158.79102 76.515625 C 158.03133 76.530365 157.26922 76.614667 156.50781 76.748047 C 157.40223 79.487638 159.85305 81.213151 162.07031 82.746094 C 164.47865 84.411146 166.60157 85.924784 167.09961 87.673828 L 167.14062 87.800781 L 167.20703 87.925781 C 167.91956 89.142876 167.71007 91.708813 167.46875 94.636719 C 167.23045 97.527778 167.10261 100.81099 168.88086 103.58203 C 169.92524 105.97564 172.0828 107.53274 174.1875 109.18555 C 176.30158 110.84572 178.37589 112.60032 179.58789 115.09766 C 180.65709 117.98296 180.50352 120.17772 180.33008 122.57812 C 180.15554 124.99343 179.97243 127.63438 181.26758 130.80078 L 181.27344 130.81445 L 181.27734 130.82227 C 182.78414 134.30778 185.2159 136.09627 187.32227 137.54883 C 188.77759 138.55243 190.03901 139.40139 190.98047 140.56836 L 191.30469 137.77344 C 190.42791 137.00905 189.48283 136.3662 188.57227 135.73828 C 186.50727 134.31423 184.58333 132.91421 183.30273 129.96289 C 182.1946 127.24895 182.34929 125.15033 182.52344 122.74023 C 182.69775 120.3278 182.88954 117.61287 181.63867 114.27539 L 181.625 114.23242 L 181.60352 114.18555 C 180.14282 111.13324 177.71175 109.1564 175.55273 107.46094 C 173.39371 105.76547 171.54863 104.32238 170.84766 102.66211 L 170.8125 102.56445 L 170.75781 102.48438 C 169.39926 100.43484 169.42541 97.660465 169.66016 94.8125 C 169.89192 92.001053 170.38841 89.181329 169.11719 86.914062 C 168.24162 84.161992 165.64665 82.547078 163.32422 80.941406 C 161.31575 79.552823 159.5582 78.194657 158.79102 76.515625 z M 149.36328 79.724609 L 148.28516 79.949219 L 147.26758 80.412109 C 148.01554 83.438857 150.62268 85.276431 152.96875 86.898438 C 155.37708 88.563493 157.50782 90.073221 158.00586 91.822266 L 158.04102 91.951172 L 158.11328 92.074219 C 158.82581 93.291317 158.61047 95.859204 158.36914 98.787109 C 158.13122 101.67363 158.00403 104.95238 159.77344 107.7207 C 160.81519 110.123 162.98459 111.67769 165.09375 113.33398 C 167.20783 114.99415 169.27433 116.75268 170.48633 119.25 C 171.55552 122.1353 171.40392 124.33006 171.23047 126.73047 C 171.05593 129.14577 170.87673 131.78282 172.17188 134.94922 L 172.17969 134.96484 L 172.18164 134.9707 C 173.68844 138.45622 176.11434 140.24861 178.2207 141.70117 C 180.32706 143.15373 182.04687 144.26577 182.94336 146.51758 L 182.95508 146.54492 L 182.9668 146.57031 C 183.93341 148.65034 183.6995 151.03195 183.47852 153.7207 C 183.25919 156.38902 183.08676 159.36685 184.64258 162.28516 L 185.64062 161.83008 L 186.60742 161.30664 C 185.34495 158.97925 185.45056 156.54351 185.66797 153.89844 C 185.88457 151.26305 186.23374 148.42648 184.9668 145.67383 C 183.79746 142.76883 181.53354 141.30987 179.47266 139.88867 C 177.40766 138.46462 175.48763 137.06264 174.20703 134.11133 C 173.09889 131.39739 173.24773 129.30268 173.42188 126.89258 C 173.59619 124.48015 173.79575 121.76131 172.54492 118.42383 L 172.52539 118.38281 L 172.50391 118.33789 C 171.04291 115.28597 168.6102 113.30874 166.45117 111.61328 C 164.29215 109.91782 162.45293 108.47082 161.75195 106.81055 L 161.70898 106.7168 L 161.65625 106.63477 C 160.2977 104.58523 160.32579 101.81282 160.56055 98.964844 C 160.79231 96.153397 161.28489 93.335634 160.01367 91.068359 C 159.13811 88.316293 156.5451 86.699418 154.22266 85.09375 C 151.85 83.453348 149.81077 81.860821 149.36328 79.724609 z M 140.26367 83.875 L 139.18945 84.097656 L 138.17578 84.560547 C 138.92374 87.587295 141.53088 89.424872 143.87695 91.046875 C 146.28529 92.711931 148.40821 94.223612 148.90625 95.972656 L 148.94141 96.103516 L 149.01172 96.224609 C 149.72425 97.441704 149.51088 100.01155 149.26953 102.93945 C 149.03123 105.8305 148.90923 109.11178 150.6875 111.88281 C 151.73188 114.27642 153.88944 115.83353 155.99414 117.48633 C 158.11193 119.14941 160.18149 120.90773 161.39258 123.41211 C 162.45408 126.28812 162.30393 128.48567 162.13086 130.88086 C 161.95632 133.29617 161.77713 135.93516 163.07227 139.10156 L 163.07812 139.11523 L 163.08203 139.12305 C 164.58883 142.60856 167.02255 144.39705 169.12891 145.84961 C 171.23526 147.30218 172.94725 148.41616 173.84375 150.66797 L 173.85547 150.69531 L 173.86719 150.72266 C 174.8338 152.80269 174.60575 155.1804 174.38477 157.86914 C 174.16544 160.53746 173.98722 163.51721 175.54297 166.43555 L 176.54297 165.98047 L 177.51367 165.45703 C 176.2512 163.12964 176.35877 160.69194 176.57617 158.04688 C 176.79278 155.41149 177.13412 152.57686 175.86719 149.82422 C 174.69786 146.91921 172.43393 145.46222 170.37305 144.04102 C 168.30804 142.61697 166.38802 141.21498 165.10742 138.26367 C 163.99928 135.54973 164.15398 133.45111 164.32812 131.04102 C 164.50244 128.62859 164.69419 125.91365 163.44336 122.57617 L 163.42578 122.53516 L 163.4043 122.48828 C 161.9433 119.43636 159.51645 117.45717 157.35742 115.76172 C 155.1984 114.06625 153.35331 112.62316 152.65234 110.96289 L 152.60938 110.86914 L 152.55664 110.78711 C 151.19808 108.73758 151.22424 105.96516 151.45898 103.11719 C 151.69075 100.30573 152.1931 97.482122 150.92188 95.214844 C 150.04654 92.462327 147.45136 90.847859 145.12891 89.242188 C 142.75624 87.601789 140.71116 86.011212 140.26367 83.875 z M 131.17188 88.023438 L 130.0918 88.248047 L 129.07617 88.710938 C 129.82414 91.737682 132.43126 93.575266 134.77734 95.197266 C 137.18568 96.862318 139.3086 98.375956 139.80664 100.125 L 139.84766 100.25195 L 139.91406 100.37695 C 140.62659 101.59405 140.41714 104.15999 140.17578 107.08789 C 139.93748 109.97895 139.80963 113.26216 141.58789 116.0332 C 142.63227 118.42681 144.78983 119.98392 146.89453 121.63672 C 149.00861 123.29688 151.08097 125.05149 152.29297 127.54883 C 153.36217 130.43413 153.21056 132.62889 153.03711 135.0293 C 152.86261 137.4446 152.67751 140.08556 153.97266 143.25195 L 153.98047 143.26758 L 153.98242 143.27344 C 155.48921 146.75895 157.92293 148.54744 160.0293 150 C 162.13566 151.45256 163.8535 152.5646 164.75 154.81641 L 164.76172 154.84375 L 164.77344 154.87109 C 165.74006 156.95112 165.50615 159.33078 165.28516 162.01953 C 165.06583 164.68784 164.89338 167.66765 166.44922 170.58594 L 167.44531 170.13086 L 168.41406 169.60742 C 167.15159 167.28003 167.25917 164.84233 167.47656 162.19727 C 167.6929 159.56489 168.03132 156.73407 166.76953 153.98438 C 165.60109 151.07428 163.34199 149.61188 161.2793 148.18945 C 159.2143 146.7654 157.2884 145.36539 156.00781 142.41406 C 154.89967 139.70012 155.05437 137.60151 155.22852 135.19141 C 155.40283 132.77898 155.59462 130.06404 154.34375 126.72656 L 154.33203 126.68359 L 154.31055 126.63672 C 152.84955 123.5848 150.41683 121.60757 148.25781 119.91211 C 146.09879 118.21664 144.2537 116.77355 143.55273 115.11328 L 143.51758 115.01562 L 143.46289 114.93555 C 142.10434 112.88601 142.13244 110.11359 142.36719 107.26562 C 142.59891 104.45418 143.09349 101.63445 141.82227 99.367188 C 140.9467 96.615121 138.35173 95.000203 136.0293 93.394531 C 133.65662 91.754141 131.61936 90.159649 131.17188 88.023438 z M 122.06836 92.175781 L 120.99023 92.400391 L 119.97461 92.863281 C 120.72257 95.890029 123.32972 97.727599 125.67578 99.349609 C 128.08412 101.01466 130.21485 102.52439 130.71289 104.27344 L 130.74805 104.4043 L 130.82031 104.52539 C 131.53284 105.74249 131.3175 108.31233 131.07617 111.24023 C 130.83825 114.12675 130.71106 117.4055 132.48047 120.17383 C 133.52222 122.57613 135.68967 124.13081 137.79883 125.78711 C 139.9129 127.44728 141.97941 129.20385 143.19141 131.70117 C 144.26059 134.58647 144.11095 136.78124 143.9375 139.18164 C 143.76296 141.59694 143.58377 144.23594 144.87891 147.40234 L 144.88477 147.41602 L 144.88867 147.42383 C 146.39547 150.90934 148.82137 152.69978 150.92773 154.15234 C 153.0341 155.6049 154.75195 156.71694 155.64844 158.96875 L 155.66211 158.99609 L 155.67383 159.02148 C 156.64044 161.10151 156.40654 163.48313 156.18555 166.17188 C 155.96622 168.84019 155.79184 171.81803 157.34766 174.73633 L 158.34766 174.28125 L 159.3125 173.75977 C 158.05002 171.43237 158.15759 168.99468 158.375 166.34961 C 158.5916 163.71422 158.93881 160.87765 157.67188 158.125 C 156.50253 155.22 154.23862 153.763 152.17773 152.3418 C 150.11274 150.91775 148.19466 149.51577 146.91406 146.56445 C 145.80592 143.85051 145.9528 141.75385 146.12695 139.34375 C 146.30126 136.93132 146.50083 134.21444 145.25 130.87695 L 145.23242 130.83594 L 145.21094 130.78906 C 143.74994 127.73714 141.31527 125.7599 139.15625 124.06445 C 136.99723 122.36898 135.15995 120.92394 134.45898 119.26367 L 134.41602 119.16797 L 134.36328 119.08789 C 133.00473 117.03836 133.03087 114.26594 133.26562 111.41797 C 133.49739 108.60652 133.99192 105.7868 132.7207 103.51953 C 131.84514 100.76746 129.25213 99.15059 126.92969 97.544922 C 124.55703 95.90452 122.51585 94.311993 122.06836 92.175781 z M 112.96875 96.328125 L 111.89453 96.548828 L 110.88086 97.011719 C 111.62882 100.03847 114.23596 101.87604 116.58203 103.49805 C 118.99037 105.1631 121.11524 106.67674 121.61328 108.42578 L 121.64844 108.55469 L 121.71875 108.67773 C 122.43129 109.89483 122.21792 112.46272 121.97656 115.39062 C 121.73826 118.28168 121.61431 121.56295 123.39258 124.33398 C 124.43696 126.72759 126.59451 128.2847 128.69922 129.9375 C 130.81701 131.60058 132.88657 133.36086 134.09766 135.86523 C 135.15916 138.74125 135.00901 140.9388 134.83594 143.33398 C 134.6614 145.74929 134.48416 148.38633 135.7793 151.55273 L 135.78516 151.56641 L 135.78906 151.57422 C 137.29586 155.05973 139.72762 156.84822 141.83398 158.30078 C 143.94034 159.75335 145.65233 160.86734 146.54883 163.11914 L 146.56055 163.14648 L 146.57422 163.17383 C 147.54083 165.25386 147.31083 167.63157 147.08984 170.32031 C 146.87052 172.98863 146.6923 175.97034 148.24805 178.88867 L 149.25 178.43164 L 150.21875 177.9082 C 148.95628 175.58081 149.06385 173.14312 149.28125 170.49805 C 149.49785 167.86267 149.8392 165.02999 148.57227 162.27734 C 147.40294 159.37234 145.13901 157.91338 143.07812 156.49219 C 141.01312 155.06814 139.09505 153.66615 137.81445 150.71484 C 136.70631 148.0009 136.86101 145.90229 137.03516 143.49219 C 137.20947 141.07976 137.40122 138.36483 136.15039 135.02734 L 136.13086 134.98633 L 136.11133 134.93945 C 134.65033 131.88753 132.22348 129.90835 130.06445 128.21289 C 127.90543 126.51742 126.06035 125.07433 125.35938 123.41406 L 125.31641 123.32031 L 125.26367 123.23828 C 123.90511 121.18875 123.92932 118.41633 124.16406 115.56836 C 124.39582 112.7569 124.89818 109.93525 123.62695 107.66797 C 122.7514 104.91588 120.15839 103.30098 117.83594 101.69531 C 115.46327 100.05491 113.41624 98.464337 112.96875 96.328125 z M 103.87695 100.47461 L 102.79883 100.69922 L 101.78125 101.16211 C 102.52922 104.18885 105.13634 106.02644 107.48242 107.64844 C 109.89076 109.31349 112.01368 110.82713 112.51172 112.57617 L 112.55273 112.70312 L 112.61914 112.82812 C 113.33168 114.04522 113.12219 116.61116 112.88086 119.53906 C 112.64256 122.43013 112.51667 125.71333 114.29492 128.48438 C 115.3393 130.87798 117.49491 132.43509 119.59961 134.08789 C 121.71368 135.74806 123.788 137.50267 125 140 C 126.0692 142.8853 125.91564 145.08202 125.74219 147.48242 C 125.56765 149.89773 125.38454 152.53673 126.67969 155.70312 L 126.68555 155.71875 L 126.68945 155.72461 C 128.19625 159.21012 130.62801 160.99861 132.73438 162.45117 C 134.84074 163.90373 136.55858 165.01773 137.45508 167.26953 L 137.4668 167.29492 L 137.47852 167.32227 C 138.44513 169.40229 138.21122 171.78391 137.99023 174.47266 C 137.77091 177.14097 137.59846 180.11882 139.1543 183.03711 L 140.15234 182.58203 L 141.11914 182.05859 C 139.85667 179.7312 139.96425 177.2935 140.18164 174.64844 C 140.39798 172.01606 140.73835 169.18524 139.47656 166.43555 C 138.30812 163.52545 136.04706 162.06305 133.98438 160.64062 C 131.91938 159.21657 129.99348 157.81851 128.71289 154.86719 C 127.60475 152.15325 127.7614 150.05463 127.93555 147.64453 C 128.10986 145.2321 128.30162 142.51717 127.05078 139.17969 L 127.03711 139.13477 L 127.01562 139.08984 C 125.55492 136.03753 123.12386 134.05874 120.96484 132.36328 C 118.80582 130.66781 116.96074 129.22472 116.25977 127.56445 L 116.22461 127.4668 L 116.16992 127.38672 C 114.81137 125.33719 114.83752 122.56477 115.07227 119.7168 C 115.30403 116.90535 115.80052 114.08563 114.5293 111.81836 C 113.65373 109.06629 111.05876 107.45138 108.73633 105.8457 C 106.36365 104.20531 104.32444 102.61082 103.87695 100.47461 z M 94.775391 104.62891 L 93.697266 104.85156 L 92.679688 105.31445 C 93.427652 108.3412 96.034793 110.17877 98.380859 111.80078 C 100.7892 113.46583 102.91993 114.97556 103.41797 116.72461 L 103.45312 116.85547 L 103.52539 116.97656 C 104.23792 118.19366 104.02257 120.7635 103.78125 123.69141 C 103.54333 126.57792 103.4181 129.85667 105.1875 132.625 C 106.22924 135.02731 108.3967 136.58198 110.50586 138.23828 C 112.61993 139.89845 114.68644 141.65502 115.89844 144.15234 C 116.96762 147.03765 116.81602 149.23241 116.64258 151.63281 C 116.46804 154.04812 116.28884 156.68711 117.58398 159.85352 L 117.5918 159.86719 L 117.59375 159.875 C 119.10056 163.3605 121.52645 165.15095 123.63281 166.60352 C 125.73918 168.05608 127.45898 169.16811 128.35547 171.41992 L 128.36719 171.44727 L 128.37891 171.47461 C 129.34552 173.55463 129.11161 175.9343 128.89062 178.62305 C 128.6713 181.29136 128.49885 184.26921 130.05469 187.1875 L 131.05273 186.73242 L 132.01953 186.21094 C 130.75706 183.88354 130.86268 181.44585 131.08008 178.80078 C 131.29668 176.16539 131.64585 173.32882 130.37891 170.57617 C 129.20957 167.67117 126.94565 166.21417 124.88477 164.79297 C 122.81977 163.36892 120.89974 161.96694 119.61914 159.01562 C 118.511 156.30169 118.65984 154.20697 118.83398 151.79688 C 119.0083 149.38444 119.20786 146.66561 117.95703 143.32812 L 117.9375 143.28711 L 117.91602 143.24023 C 116.45502 140.18831 114.02231 138.21108 111.86328 136.51562 C 109.70426 134.82016 107.86503 133.37511 107.16406 131.71484 L 107.12109 131.62109 L 107.07031 131.53906 C 105.71176 129.48953 105.7379 126.71711 105.97266 123.86914 C 106.20442 121.0577 106.697 118.23797 105.42578 115.9707 C 104.55022 113.21863 101.95916 111.60371 99.636719 109.99805 C 97.264064 108.35765 95.222879 106.76511 94.775391 104.62891 z M 85.675781 108.7793 L 84.599609 109.00195 L 83.587891 109.46289 C 84.335855 112.48964 86.943 114.32721 89.289062 115.94922 C 91.6974 117.61427 93.820316 119.12791 94.318359 120.87695 L 94.353516 121.00586 L 94.423828 121.12891 C 95.13636 122.346 94.922997 124.91389 94.681641 127.8418 C 94.443341 130.73285 94.321349 134.01412 96.099609 136.78516 C 97.143991 139.17876 99.301544 140.73587 101.40625 142.38867 C 103.52404 144.05175 105.5936 145.81203 106.80469 148.31641 C 107.86619 151.19242 107.71604 153.38997 107.54297 155.78516 C 107.36843 158.20046 107.18923 160.83751 108.48438 164.00391 L 108.49219 164.01953 L 108.49414 164.02539 C 110.00096 167.5109 112.43465 169.29939 114.54102 170.75195 C 116.64738 172.20451 118.35936 173.32046 119.25586 175.57227 L 119.26758 175.59766 L 119.2793 175.625 C 120.24588 177.70504 120.01786 180.08274 119.79688 182.77148 C 119.57755 185.4398 119.39933 188.42151 120.95508 191.33984 L 121.95508 190.88281 L 122.92578 190.35938 C 121.66331 188.03198 121.77088 185.59428 121.98828 182.94922 C 122.20489 180.31384 122.54622 177.48116 121.2793 174.72852 C 120.10996 171.82351 117.84604 170.36456 115.78516 168.94336 C 113.72015 167.51931 111.80013 166.11733 110.51953 163.16602 C 109.41139 160.45208 109.56609 158.35346 109.74023 155.94336 C 109.91455 153.53093 110.1063 150.816 108.85547 147.47852 L 108.83789 147.4375 L 108.81641 147.39258 C 107.35543 144.34065 104.92856 142.35952 102.76953 140.66406 C 100.61051 138.9686 98.765419 137.52551 98.064453 135.86523 L 98.021484 135.77148 L 97.96875 135.68945 C 96.610195 133.63992 96.636347 130.86945 96.871094 128.02148 C 97.102854 125.21003 97.605221 122.38641 96.333984 120.11914 C 95.458434 117.36704 92.863464 115.75216 90.541016 114.14648 C 88.168345 112.50609 86.12327 110.9155 85.675781 108.7793 z M 76.583984 112.92773 L 75.503906 113.15039 L 74.488281 113.61523 C 75.236246 116.64198 77.843387 118.47956 80.189453 120.10156 C 82.597791 121.76661 84.720707 123.2783 85.21875 125.02734 L 85.259766 125.15625 L 85.324219 125.2793 C 86.036747 126.4964 85.829251 129.06428 85.587891 131.99219 C 85.349591 134.88325 85.221744 138.16646 87 140.9375 C 88.044393 143.33111 90.201939 144.88821 92.306641 146.54102 C 94.420716 148.20118 96.493078 149.95384 97.705078 152.45117 C 98.774272 155.33647 98.622665 157.53319 98.449219 159.93359 C 98.27468 162.3489 98.089624 164.98985 99.384766 168.15625 L 99.390625 168.16992 L 99.394531 168.17773 C 100.90134 171.66324 103.33504 173.45173 105.44141 174.9043 C 107.54777 176.35686 109.26366 177.4689 110.16016 179.7207 L 110.17383 179.74805 L 110.18555 179.77344 C 111.15213 181.85348 110.91825 184.23508 110.69727 186.92383 C 110.47794 189.59214 110.3055 192.56998 111.86133 195.48828 L 112.85742 195.0332 L 113.82617 194.50977 C 112.5637 192.18237 112.67128 189.74467 112.88867 187.09961 C 113.10528 184.46422 113.45248 181.62961 112.18555 178.87695 C 111.0162 175.97196 108.75228 174.51495 106.69141 173.09375 C 104.6264 171.6697 102.70052 170.26968 101.41992 167.31836 C 100.31178 164.60442 100.46648 162.5058 100.64062 160.0957 C 100.81494 157.68328 101.00673 154.96834 99.755859 151.63086 L 99.744141 151.58789 L 99.722656 151.54102 C 98.261929 148.48868 95.828943 146.50991 93.669922 144.81445 C 91.510901 143.11899 89.665814 141.67785 88.964844 140.01758 L 88.929688 139.91992 L 88.875 139.83789 C 87.516445 137.78836 87.54455 135.01594 87.779297 132.16797 C 88.011058 129.35652 88.505596 126.5368 87.234375 124.26953 C 86.358806 121.51746 83.763843 119.90255 81.441406 118.29688 C 79.068736 116.65648 77.031469 115.06395 76.583984 112.92773 z M 67.482422 117.08008 L 66.404297 117.30273 C 66.404297 117.30273 66.402344 117.30273 66.402344 117.30273 C 66.055345 117.4611 65.727302 117.6418 65.398438 117.82227 C 66.164646 120.81564 68.756349 122.64195 71.087891 124.25391 C 73.496225 125.91896 75.626953 127.42869 76.125 129.17773 L 76.160156 129.30664 L 76.232422 129.42773 C 76.944954 130.64483 76.729638 133.21467 76.488281 136.14258 C 76.25036 139.02909 76.12317 142.30784 77.892578 145.07617 C 78.934326 147.47847 81.101776 149.03316 83.210938 150.68945 C 85.325009 152.34962 87.391516 154.10619 88.603516 156.60352 C 89.672706 159.48881 89.523056 161.68358 89.349609 164.08398 C 89.175071 166.49929 88.99587 169.13829 90.291016 172.30469 L 90.296875 172.31836 L 90.300781 172.32617 C 91.807596 175.81168 94.233483 177.60212 96.339844 179.05469 C 98.446205 180.50725 100.16405 181.61929 101.06055 183.87109 L 101.07422 183.89844 L 101.08594 183.92578 C 102.05253 186.00582 101.81864 188.38547 101.59766 191.07422 C 101.37958 193.72747 101.20868 196.6893 102.73633 199.5918 C 103.0789 199.46428 103.42173 199.3378 103.75977 199.18359 L 104.72461 198.66211 C 103.46213 196.33471 103.56971 193.89702 103.78711 191.25195 C 104.00371 188.61656 104.35092 185.78195 103.08398 183.0293 C 101.91465 180.1243 99.650726 178.66534 97.589844 177.24414 C 95.524842 175.82009 93.606767 174.41811 92.326172 171.4668 C 91.218033 168.75286 91.364917 166.65815 91.539062 164.24805 C 91.713374 161.83562 91.912974 159.11678 90.662109 155.7793 L 90.644531 155.73828 L 90.623047 155.69141 C 89.162055 152.63948 86.727377 150.66225 84.568359 148.9668 C 82.409334 147.27133 80.572064 145.82629 79.871094 144.16602 L 79.828125 144.07227 L 79.775391 143.99023 C 78.416836 141.9407 78.442984 139.16828 78.677734 136.32031 C 78.909495 133.50887 79.40403 130.68915 78.132812 128.42188 C 77.257243 125.66981 74.664233 124.05489 72.341797 122.44922 C 69.96913 120.80883 67.929907 119.21629 67.482422 117.08008 z M 62.318359 125.9375 L 62.660156 128.87109 C 64.776532 130.35304 66.575186 131.74708 67.025391 133.32812 L 67.060547 133.45898 L 67.130859 133.58008 C 67.843391 134.79718 67.630029 137.36701 67.388672 140.29492 C 67.150373 143.18597 67.026427 146.4653 68.804688 149.23633 C 69.849069 151.62994 72.006623 153.18704 74.111328 154.83984 C 76.229115 156.50292 78.29868 158.2632 79.509766 160.76758 C 80.571265 163.64359 80.421115 165.84114 80.248047 168.23633 C 80.073508 170.65163 79.896264 173.28868 81.191406 176.45508 L 81.197266 176.4707 L 81.201172 176.47656 C 82.707975 179.96207 85.139729 181.75057 87.246094 183.20312 C 89.352462 184.6557 91.064441 185.77164 91.960938 188.02344 L 91.972656 188.05078 L 91.986328 188.07617 C 92.952961 190.15617 92.722961 192.53587 92.501953 195.22461 C 92.386224 196.63244 92.286937 198.12745 92.441406 199.6543 C 93.19241 199.92518 93.965037 200.13098 94.751953 200.2793 C 94.463991 198.7216 94.553328 197.10424 94.693359 195.40039 C 94.909964 192.76499 95.251386 189.93232 93.984375 187.17969 C 92.815038 184.27469 90.551113 182.81572 88.490234 181.39453 C 86.425229 179.97048 84.50715 178.57046 83.226562 175.61914 C 82.118424 172.9052 82.27312 170.80658 82.447266 168.39648 C 82.621577 165.98406 82.813369 163.26912 81.5625 159.93164 L 81.542969 159.89062 L 81.523438 159.84375 C 80.062722 156.7914 77.635584 154.81069 75.476562 153.11523 C 73.317538 151.41977 71.472443 149.97667 70.771484 148.31641 L 70.728516 148.22266 L 70.675781 148.14062 C 69.317222 146.09109 69.343379 143.32062 69.578125 140.47266 C 69.809886 137.6612 70.31226 134.83758 69.041016 132.57031 C 68.165465 129.81822 65.570495 128.20333 63.248047 126.59766 C 62.929865 126.37768 62.621194 126.15724 62.318359 125.9375 z "
       transform="scale(0.26458332)" />
    <path
       id="rect3050"
       style="fill:#696969;fill-opacity:0.72272;stroke:none;stroke-width:2.2;stroke-linecap:round;stroke-linejoin:round;stroke-miterlimit:4;stroke-dasharray:none;stroke-dashoffset:3.5007;stroke-opacity:1;paint-order:stroke markers fill"
       d="M 61 28 L 61 52 L 63 52 L 63 28 L 61 28 z M 71 28 L 71 52 L 73 52 L 73 28 L 71 28 z M 81 28 L 81 52 L 83 52 L 83 28 L 81 28 z M 91 28 L 91 52 L 93 52 L 93 28 L 91 28 z M 101 28 L 101 52 L 103 52 L 103 28 L 101 28 z M 111 28 L 111 52 L 113 52 L 113 28 L 111 28 z M 121 28 L 121 52 L 123 52 L 123 28 L 121 28 z M 131 28 L 131 52 L 133 52 L 133 28 L 131 28 z M 141 28 L 141 52 L 143 52 L 143 28 L 141 28 z M 151 28 L 151 52 L 153 52 L 153 28 L 151 28 z M 161 28 L 161 52 L 163 52 L 163 28 L 161 28 z M 171 28 L 171 52 L 173 52 L 173 28 L 171 28 z M 181 28 L 181 52 L 183 52 L 183 28 L 181 28 z M 191 28 L 191 52 L 193 52 L 193 28 L 191 28 z "
       transform="scale(0.26458332)" />
    <g
       id="g3144"
       transform="matrix(1.2741276,-0.23853641,0.26901322,1.1297803,15.112484,10.416266)">
      <path
         id="rect3130"
         style="fill:#663017;fill-opacity:1;stroke:none;stroke-width:0.582083;stroke-linecap:round;stroke-linejoin:round;stroke-miterlimit:4;stroke-dasharray:none;stroke-dashoffset:3.5007;stroke-opacity:1;paint-order:stroke markers fill"
         d="M 1.5874999,6.3499998 H 2.6458332 L 2.9104166,6.6145831 2.3812499,44.979165 1.9843749,45.229714 1.5874999,44.979165 1.3229166,6.6145831 Z"
         sodipodi:nodetypes="cccccccc" />
      <path
         id="rect3133"
         style="fill:#d7d2d0;fill-opacity:1;stroke:none;stroke-width:2.2;stroke-linecap:round;stroke-linejoin:round;stroke-miterlimit:4;stroke-dasharray:none;stroke-dashoffset:3.5007;stroke-opacity:1;paint-order:stroke markers fill"
         d="m 5.1035156,40 0.1035156,15 h 5.3789068 l 0.207031,-15 z m 0.1386719,20 0.2753906,40 H 9.9648438 L 10.517578,60 Z"
         transform="scale(0.26458332)" />
    </g>
    <g
       id="g3150"
       transform="matrix(1.2977033,-0.0960576,0.10833048,1.1506851,24.275112,8.6266452)">
      <path
         id="path3146"
         style="fill:#663017;fill-opacity:1;stroke:none;stroke-width:0.582083;stroke-linecap:round;stroke-linejoin:round;stroke-miterlimit:4;stroke-dasharray:none;stroke-dashoffset:3.5007;stroke-opacity:1;paint-order:stroke markers fill"
         d="M 1.5874999,6.3499998 H 2.6458332 L 2.9104166,6.6145831 2.3812499,44.979165 1.9843749,45.229714 1.5874999,44.979165 1.3229166,6.6145831 Z"
         sodipodi:nodetypes="cccccccc" />
      <path
         id="path3148"
         style="fill:#d7d2d0;fill-opacity:1;stroke:none;stroke-width:2.2;stroke-linecap:round;stroke-linejoin:round;stroke-miterlimit:4;stroke-dasharray:none;stroke-dashoffset:3.5007;stroke-opacity:1;paint-order:stroke markers fill"
         d="m 5.1035156,40 0.1035156,15 h 5.3789068 l 0.207031,-15 z m 0.1386719,20 0.2753906,40 H 9.9648438 L 10.517578,60 Z"
         transform="scale(0.26458332)" />
    </g>
    <path
       id="rect3037"
       style="fill:url(#linearGradient3048);fill-opacity:1;stroke:none;stroke-width:2.2;stroke-linecap:round;stroke-linejoin:round;stroke-miterlimit:4;stroke-dasharray:none;stroke-dashoffset:3.5007;stroke-opacity:1;paint-order:stroke markers fill"
       d="M 66.279297 160 L 75 235 L 180 235 L 188.7207 160 L 66.279297 160 z "
       transform="scale(0.26458332)" />
    <path
       id="path3160"
       style="fill:#ffffff;fill-opacity:0.56658602;stroke:none;stroke-width:2.2;stroke-linecap:round;stroke-linejoin:round;stroke-miterlimit:4;stroke-dasharray:none;stroke-dashoffset:3.5007;stroke-opacity:1;paint-order:stroke markers fill"
       d="M 56.396484 75 L 62.791016 130 L 192.20898 130 L 198.60352 75 L 56.396484 75 z "
       transform="scale(0.26458332)" />
    <g
       aria-label="NOODL"
       id="text3154"
       style="font-weight:bold;font-size:11.2889px;line-height:1.25;font-family:JuliaMono;-inkscape-font-specification:'JuliaMono, Bold';fill:#9b0009;fill-opacity:1;stroke:#ec8885;stroke-width:0.423333;stroke-miterlimit:4;stroke-dasharray:none;stroke-opacity:0">
      <path
         d="m 19.026671,30.451786 h -1.399824 v -8.184453 h 1.828802 l 1.603024,4.696183 0.327378,0.993423 v -5.689606 h 1.411113 v 8.184453 h -1.715913 l -2.05458,-5.588006 z"
         style="fill:#9b0009;fill-opacity:1;stroke:#ec8885;stroke-width:0.423333;stroke-miterlimit:4;stroke-dasharray:none;stroke-opacity:0"
         id="path3165" />
      <path
         d="m 26.996617,30.62112 q -1.044223,0 -1.727201,-0.564445 -0.677334,-0.564445 -0.999068,-1.552224 -0.321734,-0.987779 -0.321734,-2.286003 0,-1.241779 0.366889,-2.15618 0.372534,-0.920045 1.061157,-1.411112 0.688623,-0.496712 1.619957,-0.496712 0.936979,0 1.625602,0.485423 0.688623,0.479778 1.055512,1.388535 0.366889,0.908756 0.366889,2.167469 0,1.309512 -0.321733,2.302935 -0.316089,0.993424 -0.999068,1.557869 -0.677334,0.564445 -1.727202,0.564445 z m -0.01129,-1.286935 q 0.818446,0 1.196624,-0.841023 0.383822,-0.841023 0.383822,-2.20698 0,-0.812801 -0.180622,-1.461913 -0.174978,-0.654756 -0.524934,-1.032934 -0.349956,-0.383823 -0.852312,-0.383823 -0.508,0 -0.863601,0.366889 -0.3556,0.361245 -0.536222,1.016002 -0.180623,0.649111 -0.180623,1.518357 0,1.326445 0.372534,2.178757 0.378178,0.846668 1.185334,0.846668 z"
         style="fill:#9b0009;fill-opacity:1;stroke:#ec8885;stroke-width:0.423333;stroke-miterlimit:4;stroke-dasharray:none;stroke-opacity:0"
         id="path3167" />
      <path
         d="m 33.76994,30.62112 q -1.044223,0 -1.727201,-0.564445 -0.677334,-0.564445 -0.999068,-1.552224 -0.321734,-0.987779 -0.321734,-2.286003 0,-1.241779 0.36689,-2.15618 0.372533,-0.920045 1.061156,-1.411112 0.688623,-0.496712 1.619957,-0.496712 0.936979,0 1.625602,0.485423 0.688623,0.479778 1.055512,1.388535 0.366889,0.908756 0.366889,2.167469 0,1.309512 -0.321733,2.302935 -0.316089,0.993424 -0.999068,1.557869 -0.677334,0.564445 -1.727202,0.564445 z m -0.01129,-1.286935 q 0.818446,0 1.196624,-0.841023 0.383823,-0.841023 0.383823,-2.20698 0,-0.812801 -0.180623,-1.461913 -0.174978,-0.654756 -0.524934,-1.032934 -0.349956,-0.383823 -0.852312,-0.383823 -0.508,0 -0.863601,0.366889 -0.3556,0.361245 -0.536222,1.016002 -0.180623,0.649111 -0.180623,1.518357 0,1.326445 0.372534,2.178757 0.378178,0.846668 1.185334,0.846668 z"
         style="fill:#9b0009;fill-opacity:1;stroke:#ec8885;stroke-width:0.423333;stroke-miterlimit:4;stroke-dasharray:none;stroke-opacity:0"
         id="path3169" />
      <path
         d="m 37.901661,30.451786 v -8.184453 h 1.772357 q 1.270001,0 2.077158,0.389467 0.807156,0.389467 1.207912,1.275646 0.406401,0.886179 0.406401,2.376314 0,1.490134 -0.378179,2.393246 -0.372533,0.903113 -1.202268,1.326446 -0.824089,0.423334 -2.201335,0.423334 z m 1.840091,-1.23049 q 0.739422,0 1.185334,-0.327378 0.451556,-0.327378 0.649112,-0.965201 0.197556,-0.643468 0.197556,-1.619957 0,-1.382891 -0.445912,-2.094091 -0.445912,-0.716846 -1.48449,-0.716846 h -0.485423 v 5.723473 z"
         style="fill:#9b0009;fill-opacity:1;stroke:#ec8885;stroke-width:0.423333;stroke-miterlimit:4;stroke-dasharray:none;stroke-opacity:0"
         id="path3171" />
      <path
         d="m 50.059789,30.451786 h -5.260627 v -8.195742 h 1.467557 v 6.942674 h 3.79307 z"
         style="fill:#9b0009;fill-opacity:1;stroke:#ec8885;stroke-width:0.423333;stroke-miterlimit:4;stroke-dasharray:none;stroke-opacity:0"
         id="path3173" />
    </g>
  </g>
</svg>
