<?xml version="1.0" encoding="UTF-8" standalone="no"?>
<svg
   xmlns:dc="http://purl.org/dc/elements/1.1/"
   xmlns:cc="http://creativecommons.org/ns#"
   xmlns:rdf="http://www.w3.org/1999/02/22-rdf-syntax-ns#"
   xmlns:svg="http://www.w3.org/2000/svg"
   xmlns="http://www.w3.org/2000/svg"
   xmlns:xlink="http://www.w3.org/1999/xlink"
   xmlns:sodipodi="http://sodipodi.sourceforge.net/DTD/sodipodi-0.dtd"
   xmlns:inkscape="http://www.inkscape.org/namespaces/inkscape"
   width="200"
   height="400"
   viewBox="0 0 52.916665 105.83333"
   version="1.1"
   id="svg8"
   inkscape:version="1.0.2 (e86c870879, 2021-01-15)"
   sodipodi:docname="promo.svg">
  <defs
     id="defs2">
    <linearGradient
       inkscape:collect="always"
       id="linearGradient855">
      <stop
         style="stop-color:#ebcd37;stop-opacity:1"
         offset="0"
         id="stop851" />
      <stop
         style="stop-color:#ab1115;stop-opacity:1"
         offset="1"
         id="stop853" />
    </linearGradient>
    <linearGradient
       inkscape:collect="always"
       xlink:href="#linearGradient855"
       id="linearGradient857"
       x1="32.190975"
       y1="75.587585"
       x2="29.545143"
       y2="111.93298"
       gradientUnits="userSpaceOnUse"
       gradientTransform="matrix(1.0340465,0,0,1,1.019118e-5,4.3168885)" />
  </defs>
  <sodipodi:namedview
     id="base"
     pagecolor="#ffffff"
     bordercolor="#666666"
     borderopacity="1.0"
     inkscape:pageopacity="0.0"
     inkscape:pageshadow="2"
     inkscape:zoom="1.4"
     inkscape:cx="91.918414"
     inkscape:cy="192.73147"
     inkscape:document-units="px"
     inkscape:current-layer="layer1"
     inkscape:document-rotation="0"
     showgrid="true"
     units="px"
     inkscape:window-width="1343"
     inkscape:window-height="908"
     inkscape:window-x="123"
     inkscape:window-y="26"
     inkscape:window-maximized="0">
    <inkscape:grid
       type="xygrid"
       id="grid1402" />
  </sodipodi:namedview>
  <metadata
     id="metadata5">
    <rdf:RDF>
      <cc:Work
         rdf:about="">
        <dc:format>image/svg+xml</dc:format>
        <dc:type
           rdf:resource="http://purl.org/dc/dcmitype/StillImage" />
        <dc:title></dc:title>
      </cc:Work>
    </rdf:RDF>
  </metadata>
  <g
     inkscape:label="Layer 1"
     inkscape:groupmode="layer"
     id="layer1">
    <rect
       style="fill:url(#linearGradient857);fill-opacity:1;stroke-width:0.807149;stroke-linecap:round;stroke-linejoin:round;stroke-dashoffset:3.5007;paint-order:stroke markers fill"
       id="rect831"
       width="103.96474"
       height="44.979164"
       x="-24.623222"
       y="86.337723"
       transform="matrix(0.96707451,-0.25449339,0,1,0,0)" />
    <g
       aria-label="WoW!!!"
       transform="matrix(0.9779383,-0.26546911,0,1.0225594,0,0)"
       id="text835"
       style="font-style:normal;font-variant:normal;font-weight:normal;font-stretch:normal;font-size:11.2889px;line-height:1.25;font-family:'UKIJ Kufi Chiwer';-inkscape-font-specification:'UKIJ Kufi Chiwer, Normal';font-variant-ligatures:normal;font-variant-caps:normal;font-variant-numeric:normal;font-variant-east-asian:normal;fill:#ffffff;fill-opacity:1;stroke-width:0.560459">
      <path
         d="m 4.0557593,94.819074 h 1.4993071 l 2.888371,8.119406 H 7.3906152 L 4.8605345,95.789214 H 4.0557593 Z m 1.7253056,0 h 1.0528223 l 2.8497859,8.119406 H 8.6253386 Z m 1.2843329,0 h 2.1111567 v 0.97014 h -0.694532 l 1.4882828,4.271926 1.1961387,-2.982081 -0.463022,-1.289845 H 9.8986472 v -0.97014 H 12.76497 v 0.97014 h -0.997701 l 1.477258,4.216796 1.587502,-4.216796 h -0.898482 v -0.97014 h 2.78364 v 0.97014 h -0.799263 l -2.70647,7.149266 -1.515843,-4.338066 -1.7804273,4.338066 z"
         style="font-style:normal;font-variant:normal;font-weight:normal;font-stretch:normal;font-size:11.2889px;font-family:'UKIJ Kufi Chiwer';-inkscape-font-specification:'UKIJ Kufi Chiwer, Normal';font-variant-ligatures:normal;font-variant-caps:normal;font-variant-numeric:normal;font-variant-east-asian:normal;fill:#ffffff;fill-opacity:1;stroke-width:0.560459"
         id="path936" />
      <path
         d="m 18.034593,102.03449 q -1.355991,-1.36702 -1.355991,-3.136419 0,-0.903994 0.385851,-1.791451 0.181901,-0.429949 0.385851,-0.722093 0.209462,-0.292145 0.584289,-0.666971 z m 1.179602,0.74965 q -0.496094,-0.23151 -0.975652,-0.62287 v -6.603567 q 0.496094,-0.369315 0.975652,-0.567752 z m 0.20395,0.0606 v -7.932 q 0.788238,-0.214974 1.427649,-0.214974 1.692232,0 2.816713,1.025262 0.644922,0.589801 0.992188,1.411112 0.363803,0.826824 0.363803,1.747355 0,1.686715 -1.091408,2.860805 -1.207162,1.31741 -3.169491,1.31741 -0.595313,0 -1.339454,-0.21497 z m 0.975652,-0.78824 q 0.308681,0.0331 0.496094,0.0331 1.311894,0 2.215888,-0.97014 0.429948,-0.46302 0.666971,-1.06385 0.242535,-0.606333 0.242535,-1.234719 0,-1.289845 -0.876433,-2.204864 -0.429949,-0.446484 -1.003213,-0.694532 -0.584289,-0.248047 -1.196139,-0.248047 -0.181901,0 -0.545703,0.02205 z"
         style="font-style:normal;font-variant:normal;font-weight:normal;font-stretch:normal;font-size:11.2889px;font-family:'UKIJ Kufi Chiwer';-inkscape-font-specification:'UKIJ Kufi Chiwer, Normal';font-variant-ligatures:normal;font-variant-caps:normal;font-variant-numeric:normal;font-variant-east-asian:normal;fill:#ffffff;fill-opacity:1;stroke-width:0.560459"
         id="path938" />
      <path
         d="m 24.979912,94.819074 h 1.499307 l 2.888371,8.119406 h -1.052822 l -2.530081,-7.149266 h -0.804775 z m 1.725305,0 h 1.052823 l 2.849785,8.119406 h -1.058334 z m 1.284333,0 h 2.111157 v 0.97014 h -0.694532 l 1.488283,4.271926 1.196138,-2.982081 -0.463021,-1.289845 H 30.8228 v -0.97014 h 2.866322 v 0.97014 h -0.997701 l 1.477259,4.216796 1.587501,-4.216796 H 34.8577 v -0.97014 h 2.78364 v 0.97014 h -0.799263 l -2.70647,7.149266 -1.515844,-4.338066 -1.780427,4.338066 z"
         style="font-style:normal;font-variant:normal;font-weight:normal;font-stretch:normal;font-size:11.2889px;font-family:'UKIJ Kufi Chiwer';-inkscape-font-specification:'UKIJ Kufi Chiwer, Normal';font-variant-ligatures:normal;font-variant-caps:normal;font-variant-numeric:normal;font-variant-east-asian:normal;fill:#ffffff;fill-opacity:1;stroke-width:0.560459"
         id="path940" />
      <path
         d="m 40.2982,100.17138 q 0.429948,0.24253 0.611849,0.47405 0.297657,0.39687 0.297657,0.90399 0,0.45751 -0.214974,0.77721 -0.209462,0.3142 -0.694532,0.5898 z m -1.135505,2.77813 v -2.8112 q 0.270096,-0.0882 0.523655,-0.0882 0.170877,0 0.4079,0.0606 v 2.86632 q -0.225999,0.0661 -0.418924,0.0661 -0.209462,0 -0.512631,-0.0937 z m -0.20395,-2.72852 v 2.64584 q -0.793751,-0.4961 -0.793751,-1.32292 0,-0.43546 0.181902,-0.74414 0.187413,-0.30869 0.611849,-0.57878 z m -1.014237,-0.727606 v -4.67431 h 0.981164 v 4.67431 z m 1.179602,0 v -4.67431 h 0.975652 v 4.67431 z m 1.17409,0 v -4.67431 h 0.981164 v 4.67431 z"
         style="font-style:normal;font-variant:normal;font-weight:normal;font-stretch:normal;font-size:11.2889px;font-family:'UKIJ Kufi Chiwer';-inkscape-font-specification:'UKIJ Kufi Chiwer, Normal';font-variant-ligatures:normal;font-variant-caps:normal;font-variant-numeric:normal;font-variant-east-asian:normal;fill:#ffffff;fill-opacity:1;stroke-width:0.560459"
         id="path942" />
      <path
         d="m 44.68588,100.17138 q 0.429948,0.24253 0.611849,0.47405 0.297657,0.39687 0.297657,0.90399 0,0.45751 -0.214974,0.77721 -0.209462,0.3142 -0.694532,0.5898 z m -1.135505,2.77813 v -2.8112 q 0.270096,-0.0882 0.523655,-0.0882 0.170877,0 0.4079,0.0606 v 2.86632 q -0.225999,0.0661 -0.418924,0.0661 -0.209462,0 -0.512631,-0.0937 z m -0.20395,-2.72852 v 2.64584 q -0.793751,-0.4961 -0.793751,-1.32292 0,-0.43546 0.181902,-0.74414 0.187413,-0.30869 0.611849,-0.57878 z m -1.014237,-0.727606 v -4.67431 h 0.981164 v 4.67431 z m 1.179602,0 v -4.67431 h 0.975652 v 4.67431 z m 1.17409,0 v -4.67431 h 0.981164 v 4.67431 z"
         style="font-style:normal;font-variant:normal;font-weight:normal;font-stretch:normal;font-size:11.2889px;font-family:'UKIJ Kufi Chiwer';-inkscape-font-specification:'UKIJ Kufi Chiwer, Normal';font-variant-ligatures:normal;font-variant-caps:normal;font-variant-numeric:normal;font-variant-east-asian:normal;fill:#ffffff;fill-opacity:1;stroke-width:0.560459"
         id="path944" />
      <path
         d="m 49.073556,100.17138 q 0.429948,0.24253 0.61185,0.47405 0.297656,0.39687 0.297656,0.90399 0,0.45751 -0.214974,0.77721 -0.209462,0.3142 -0.694532,0.5898 z m -1.135505,2.77813 v -2.8112 q 0.270096,-0.0882 0.523655,-0.0882 0.170877,0 0.4079,0.0606 v 2.86632 q -0.225998,0.0661 -0.418924,0.0661 -0.209462,0 -0.512631,-0.0937 z m -0.203949,-2.72852 v 2.64584 q -0.793751,-0.4961 -0.793751,-1.32292 0,-0.43546 0.181901,-0.74414 0.187413,-0.30869 0.61185,-0.57878 z m -1.014238,-0.727606 v -4.67431 h 0.981165 v 4.67431 z m 1.179602,0 v -4.67431 h 0.975652 v 4.67431 z m 1.17409,0 v -4.67431 h 0.981164 v 4.67431 z"
         style="font-style:normal;font-variant:normal;font-weight:normal;font-stretch:normal;font-size:11.2889px;font-family:'UKIJ Kufi Chiwer';-inkscape-font-specification:'UKIJ Kufi Chiwer, Normal';font-variant-ligatures:normal;font-variant-caps:normal;font-variant-numeric:normal;font-variant-east-asian:normal;fill:#ffffff;fill-opacity:1;stroke-width:0.560459"
         id="path946" />
    </g>
    <g
       aria-label="NEW
PROMO"
       transform="skewY(-15.187598)"
       id="text869"
       style="font-style:normal;font-variant:normal;font-weight:bold;font-stretch:normal;font-size:9.87778px;line-height:1;font-family:'UKIJ 3D';-inkscape-font-specification:'UKIJ 3D, Bold';font-variant-ligatures:normal;font-variant-caps:normal;font-variant-numeric:normal;font-variant-east-asian:normal;text-align:center;text-anchor:middle;stroke-width:0.264583">
      <path
         d="m 17.75533,22.950749 h -1.61575 l -3.626998,-4.495161 v 3.38584 h 1.418002 v 1.109321 h -3.877801 v -1.109321 h 1.350478 v -3.983909 h -1.350478 v -1.104498 h 3.24597 l 3.342433,4.065903 V 17.876811 H 15.126721 V 16.76749 h 4.036964 v 1.109321 H 17.75533 Z m -7.186471,-4.451753 -0.458198,-0.549838 h 0.265273 l 0.289388,0.361735 h 0.578776 v 0.188103 z m 2.372982,3.270085 v -2.488737 l 0.197749,0.192925 v 2.295812 z m -2.213819,2.03054 -0.511252,-0.636654 h 0.217041 l 0.352089,0.434082 h 3.424426 v -1.017681 l -0.202572,-0.241157 v -0.255626 l 0.390674,0.472667 v 1.244369 z m 5.035353,-5.300625 -0.535368,-0.549838 h 0.265272 l 0.376205,0.361735 h 0.607715 v 0.188103 z m 1.167199,5.300625 -0.516076,-0.573953 h 0.24598 l 0.371381,0.371381 h 1.263662 V 18.310893 H 19.60259 V 17.33662 l -0.294211,-0.23151 v -0.202572 l 0.501606,0.327973 v 1.268485 h -1.302246 v 5.300625 z"
         style="font-style:normal;font-variant:normal;font-weight:bold;font-stretch:normal;font-size:9.87778px;font-family:'UKIJ 3D';-inkscape-font-specification:'UKIJ 3D, Bold';font-variant-ligatures:normal;font-variant-caps:normal;font-variant-numeric:normal;font-variant-east-asian:normal;text-align:center;text-anchor:middle;stroke-width:0.264583"
         id="path916" />
      <path
         d="m 20.244067,21.841428 h 1.282954 v -4.008025 h -1.263662 v -1.104498 h 7.022485 v 2.392275 h -1.225077 v -0.419613 q 0,-0.188102 -0.09164,-0.395497 -0.08682,-0.207394 -0.250803,-0.337619 -0.159164,-0.135048 -0.352089,-0.135048 h -1.996778 v 1.244369 h 1.485526 v 1.220253 h -1.485526 v 1.543403 h 1.818322 q 0.390674,0 0.670416,-0.221864 0.279741,-0.226687 0.279741,-0.612538 V 20.42825 h 1.278131 v 2.522499 h -7.172001 z m 0.30868,-3.868154 0.125402,0.212218 h 0.684885 v 0.202572 h -0.752409 l -0.284565,-0.41479 z m 3.41478,0.959804 H 23.769778 V 18.2289 h 1.46141 q 0.159164,0 0.294211,0.05788 0.135048,0.05788 0.163987,0.197748 -0.236334,-0.05305 -0.458198,-0.05305 h -1.263661 z m 0.998389,0.520898 V 19.19835 l 0.434082,0.434082 v 1.350478 h -1.413179 v 0.704178 h -0.217041 v -0.911573 h 1.442118 V 19.69031 Z m -4.036964,4.239536 -0.540191,-0.593246 h 0.236333 l 0.376205,0.434082 h 6.829559 v -2.527322 l -0.313504,-0.231511 v -0.207394 l 0.49196,0.366558 v 2.758833 z m 5.445319,-4.340821 0.236334,0.192925 h 1.070736 v -2.170411 l -0.226688,-0.236333 v -0.236334 l 0.395497,0.40032 v 2.43086 h -1.316715 l -0.361736,-0.381027 z"
         style="font-style:normal;font-variant:normal;font-weight:bold;font-stretch:normal;font-size:9.87778px;font-family:'UKIJ 3D';-inkscape-font-specification:'UKIJ 3D, Bold';font-variant-ligatures:normal;font-variant-caps:normal;font-variant-numeric:normal;font-variant-east-asian:normal;text-align:center;text-anchor:middle;stroke-width:0.264583"
         id="path918" />
      <path
         d="m 33.594504,20.572944 h -0.188103 l -0.853695,-2.117356 h 0.98392 v -0.520899 l 0.178456,0.106109 v 0.578776 h -0.868164 z m 0.540191,-2.011248 -0.376205,-0.540191 h 0.15434 l 0.303858,0.409967 h 0.207395 l -0.05788,0.130224 z m -5.083584,0.01929 -0.554661,-0.6463 h 0.207395 l 0.453375,0.496783 h 0.689708 l 0.101286,0.149517 z m 9.520868,2.01607 -0.06752,0.221865 -1.012859,-2.363336 h 0.954981 v -0.434083 l 0.149517,0.06752 v 0.530545 H 37.8051 Z m 0.284565,-2.488737 0.294211,0.347266 h 0.313504 l -0.08199,0.125401 h -0.327973 l -0.376204,-0.472667 z m -1.162376,5.628598 -0.516075,-0.598069 h 0.192925 l 0.395497,0.434082 h 1.61575 l 2.069125,-5.117345 h 1.258838 v -0.916396 l -0.217041,-0.327973 v -0.327973 l 0.409967,0.636653 v 1.099675 h -1.345655 l -2.054655,5.117346 z m -1.881022,-3.438895 -1.446941,3.419603 h -1.678451 l -0.56913,-0.578777 h 0.217041 l 0.434083,0.434082 h 1.485525 l 1.456587,-3.506418 -0.318327,-0.655947 -1.533757,3.540181 H 31.940168 L 29.78905,17.857519 H 28.438573 V 16.76749 h 4.639855 v 1.090029 h -1.282954 l 1.471056,3.684875 1.490349,-3.684875 H 33.44981 V 16.76749 h 4.659148 v 1.090029 h -1.364947 l 1.596457,3.684875 1.446941,-3.684875 H 38.422461 V 16.76749 h 3.964617 v 1.090029 h -1.302246 l -2.016071,5.09323 h -2.054655 z"
         style="font-style:normal;font-variant:normal;font-weight:bold;font-stretch:normal;font-size:9.87778px;font-family:'UKIJ 3D';-inkscape-font-specification:'UKIJ 3D, Bold';font-variant-ligatures:normal;font-variant-caps:normal;font-variant-numeric:normal;font-variant-east-asian:normal;text-align:center;text-anchor:middle;stroke-width:0.264583"
         id="path920" />
      <path
         d="M 3.5487863,33.6147 2.9941258,32.963577 h 0.217041 L 3.611487,33.450713 H 8.1307643 V 32.47644 L 7.8558456,32.138821 v -0.260449 l 0.4581978,0.511252 V 33.6147 Z M 3.466793,28.478062 3.0182415,27.851054 h 0.1929253 l 0.3135038,0.458198 h 0.6270075 v 0.16881 z m 3.3761943,2.011247 H 6.2159798 v 1.229899 h 1.4999949 v 1.109321 H 2.9121325 V 31.719208 H 4.3590729 V 27.735299 H 2.9121325 V 26.64527 h 4.8038422 q 2.8745883,0 2.8987043,2.131826 0,0.757232 -0.434082,1.133437 -0.4292594,0.376204 -1.0755595,0.482313 -0.6463001,0.101286 -1.6591583,0.120578 -0.2025717,-0.02412 -0.6028919,-0.02412 z m 1.3311852,-2.75401 H 6.2159798 v 1.818322 h 1.6639815 q 0.6559463,0 0.9405113,-0.236334 Q 9.1050375,29.07613 9.1050375,28.622756 9.0760987,28.164558 8.8590576,27.95234 8.6420166,27.735299 8.1741725,27.735299 Z m -1.2443688,1.61575 H 6.7658172 v -1.017682 h 1.7218591 q 0.048231,0 0.1109321,0.02412 0.062701,0.02412 0.1109321,0.05788 0.053054,0.03376 0.07717,0.04341 H 6.9298037 Z m -0.1061089,2.271696 v -0.453374 h 1.6639815 q 2.6237857,0 2.6479007,-2.155942 0,-0.376204 -0.120578,-0.655946 -0.115755,-0.279742 -0.376205,-0.583599 l -0.07717,-0.24598 q 0.371382,0.361735 0.530545,0.660769 0.163987,0.299035 0.183279,0.786171 0,0.733117 -0.260449,1.210607 -0.260449,0.477491 -0.699355,0.728294 -0.4389049,0.245979 -0.9742729,0.337619 -0.535368,0.09164 -1.1671986,0.09164 H 6.9683888 v 0.279741 z"
         style="font-style:normal;font-variant:normal;font-weight:bold;font-stretch:normal;font-size:9.87778px;font-family:'UKIJ 3D';-inkscape-font-specification:'UKIJ 3D, Bold';font-variant-ligatures:normal;font-variant-caps:normal;font-variant-numeric:normal;font-variant-east-asian:normal;text-align:center;text-anchor:middle;stroke-width:0.264583"
         id="path922" />
      <path
         d="m 12.288306,33.6147 -0.55466,-0.651123 h 0.226687 l 0.390674,0.487136 h 4.5241 V 32.47644 l -0.274918,-0.337619 v -0.260449 l 0.458198,0.511252 V 33.6147 Z M 12.172551,28.265844 11.70953,27.87517 h 0.250803 l 0.289388,0.255626 h 0.641477 v 0.135048 z m 4.548216,-0.530545 h -1.741152 v 1.553049 h 1.620574 q 0.434082,0 0.790994,-0.217041 0.356912,-0.217041 0.356912,-0.631831 0,-0.390673 -0.299035,-0.545014 -0.294211,-0.159163 -0.728293,-0.159163 z m -1.191314,1.360124 v -0.964627 h 1.321539 q 0.376204,0 0.535368,0.159163 h -1.692921 v 0.805464 z m 3.024105,0.516075 q 0,0.06752 0.0627,0.120579 0.0627,0.04823 0.207395,0.115755 0.144694,0.0627 0.241157,0.120578 0.101285,0.05788 0.168809,0.149517 0.347266,0.516076 0.395497,0.926042 l 0.01447,0.255626 q 0.01447,0.09164 0.01929,0.188103 0.0096,0.09164 0.02412,0.149517 0.01447,0.05788 0.05305,0.06752 0.07235,0.01447 0.279742,0.05305 0.09646,-0.01929 0.231511,-0.01929 h 0.491959 v 1.090028 h -1.948546 q -0.409966,0 -0.651123,-0.356912 -0.241157,-0.356912 -0.255626,-0.781348 l -0.01929,-0.434082 Q 17.849381,30.95233 17.728802,30.69188 17.613047,30.431431 17.429768,30.339792 17.207904,30.219213 16.662889,30.219213 h -1.620573 v 1.519288 h 1.437294 v 1.090028 h -4.803842 v -1.090028 h 1.446941 V 27.735299 H 11.675768 V 26.64527 h 5.532136 q 0.361735,0 0.872987,0.125402 0.511252,0.125401 0.935688,0.487136 0.424436,0.356912 0.424436,1.008036 0,0.419612 -0.115755,0.660769 -0.115755,0.236334 -0.255626,0.337619 -0.135048,0.09646 -0.318327,0.188103 -0.183279,0.08682 -0.197749,0.159163 z m 1.364947,-0.911572 q 0,-0.241157 -0.08682,-0.496783 -0.08682,-0.255626 -0.144694,-0.376205 l 0.110932,0.02412 0.07717,0.144694 q 0.07235,0.144694 0.130225,0.32315 0.05788,0.178456 0.05788,0.366558 0,0.670416 -0.294211,0.950158 -0.289388,0.274919 -0.487136,0.327973 l -0.07235,-0.07717 q 0.04823,0 0.221864,-0.125402 0.173633,-0.125401 0.32315,-0.390674 0.149517,-0.265272 0.163986,-0.670415 z m -2.387451,2.228288 h -1.79903 V 31.58416 H 15.553568 V 30.773874 H 16.8944 q 0.279742,0 0.636654,0.15434 z m 2.445329,-0.438905 q 0,0.0048 0.101286,0.23151 0.106109,0.226688 0.135048,0.347266 0.03858,0.226687 0.03858,0.55466 h -0.173633 v -0.217041 q 0,-0.255626 -0.01447,-0.361735 -0.02412,-0.149517 -0.144694,-0.395497 -0.115755,-0.226687 -0.120578,-0.226687 z m -0.926042,2.850472 q 0.231511,0.09646 0.361735,0.115756 0.130225,0.01929 0.40032,0.01929 h 1.30707 v -1.225076 l -0.188102,-0.192926 v -0.202571 l 0.352089,0.361735 v 1.422825 h -1.38424 q -0.318327,0 -0.540191,-0.06752 -0.221864,-0.0627 -0.564307,-0.231511 -0.226687,-0.106109 -0.337619,-0.24598 -0.106109,-0.135047 -0.135048,-0.202571 0,0.0048 0.260449,0.183279 0.270096,0.188102 0.467844,0.265272 z"
         style="font-style:normal;font-variant:normal;font-weight:bold;font-stretch:normal;font-size:9.87778px;font-family:'UKIJ 3D';-inkscape-font-specification:'UKIJ 3D, Bold';font-variant-ligatures:normal;font-variant-caps:normal;font-variant-numeric:normal;font-variant-east-asian:normal;text-align:center;text-anchor:middle;stroke-width:0.264583"
         id="path924" />
      <path
         d="m 25.412056,27.62919 q -0.395497,0 -0.795817,0.120578 -0.40032,0.120579 -0.56913,0.255626 -0.313503,0.241157 -0.47749,0.776525 -0.159163,0.535368 -0.159163,1.147906 v 0.24598 q 0,0.660769 0.159163,1.118967 0.163987,0.458198 0.622184,0.747586 0.05788,0.03376 0.448552,0.106109 0.395497,0.07235 0.713824,0.08199 0.15434,-0.03376 0.467844,-0.06752 0.313504,-0.03376 0.511252,-0.07717 0.202572,-0.04341 0.390674,-0.15434 0.192925,-0.110932 0.366558,-0.327973 0.115756,-0.163987 0.183279,-0.554661 0.07235,-0.395497 0.07235,-0.815109 v -0.424436 q 0,-0.593246 -0.09646,-0.959804 -0.09164,-0.371381 -0.40032,-0.684885 -0.202572,-0.197749 -0.631831,-0.356912 -0.424436,-0.163987 -0.805464,-0.178456 z m 0.03859,5.49355 q -0.771702,0 -1.442118,-0.178456 -0.670416,-0.173633 -1.186491,-0.549837 -0.511252,-0.381028 -0.810287,-0.998389 -0.294211,-0.622184 -0.303857,-1.466233 0,-0.694531 0.294211,-1.302246 0.294211,-0.607715 0.810287,-1.051444 0.520898,-0.443728 1.186491,-0.684885 0.665593,-0.24598 1.389063,-0.24598 1.032151,0 1.876199,0.429259 0.844049,0.429259 1.331185,1.205784 0.487137,0.776525 0.487137,1.760444 -0.03376,0.795817 -0.337619,1.38424 -0.303858,0.588422 -0.805464,0.959804 -0.496783,0.366558 -1.13826,0.545014 -0.636654,0.178456 -1.350477,0.192925 z m 0.02894,-4.663971 q -0.549837,0 -0.858518,0.226687 -0.212218,0.139871 -0.318327,0.405144 -0.106109,0.260449 -0.135047,0.545014 -0.02894,0.279742 -0.03858,0.786171 0,0.24598 0.0627,0.718647 0.06752,0.467844 0.06752,0.482313 l -0.15434,-0.07717 q -0.02894,-0.01447 -0.09646,-0.487136 -0.06752,-0.477491 -0.06752,-0.800641 0.04823,-0.660769 0.135048,-1.070736 0.08682,-0.409966 0.32315,-0.588422 0.207395,-0.16881 0.434082,-0.217041 0.226688,-0.04823 0.617362,-0.07235 0.366558,0 0.72347,0.106109 0.356912,0.101286 0.40032,0.149517 l 0.05788,0.135048 q -0.09646,-0.0627 -0.376205,-0.149517 -0.274919,-0.09164 -0.718647,-0.09164 z m 0.342443,5.276509 q 0.766878,-0.0048 1.475879,-0.260449 0.709001,-0.250803 1.263661,-0.709001 0.554661,-0.463021 0.872988,-1.099674 0.318327,-0.636654 0.337619,-1.38424 0,-0.395497 -0.106109,-0.766879 -0.106109,-0.371381 -0.255626,-0.670415 -0.144694,-0.299035 -0.270095,-0.477491 -0.120579,-0.178456 -0.139871,-0.178456 0.03376,0.01929 0.159163,0.159164 0.130225,0.139871 0.289388,0.395497 0.159164,0.255626 0.289388,0.627007 0.130225,0.371382 0.154341,0.82958 0,0.824756 -0.332797,1.509641 -0.327973,0.680062 -0.901926,1.167198 -0.573953,0.482314 -1.302246,0.73794 -0.72347,0.260449 -1.514465,0.274919 -0.718647,0 -1.254015,-0.139871 -0.530544,-0.135048 -0.848871,-0.318327 -0.313504,-0.183279 -0.467844,-0.332796 -0.149518,-0.144694 -0.197749,-0.188103 0.250803,0.207395 0.950158,0.516076 0.704177,0.30868 1.799029,0.30868 z"
         style="font-style:normal;font-variant:normal;font-weight:bold;font-stretch:normal;font-size:9.87778px;font-family:'UKIJ 3D';-inkscape-font-specification:'UKIJ 3D, Bold';font-variant-ligatures:normal;font-variant-caps:normal;font-variant-numeric:normal;font-variant-east-asian:normal;text-align:center;text-anchor:middle;stroke-width:0.264583"
         id="path926" />
      <path
         d="m 30.365414,26.630801 h 3.95497 l 1.263662,3.371371 1.244368,-3.371371 h 3.935678 v 1.104498 h -1.321539 v 3.983909 h 1.398709 v 1.109321 h -4.606093 v -1.109321 h 1.364947 v -3.733106 l -1.900315,4.842427 h -0.945335 l -1.803852,-4.842427 v 3.733106 h 1.311893 v 1.109321 h -3.897093 v -1.109321 h 1.364947 v -3.983909 h -1.364947 z m 4.408345,0.463021 -0.183279,-0.110932 -0.08682,-0.241157 0.443729,0.32315 0.824756,1.890669 -0.08682,0.250803 z m -3.853685,1.364947 -0.516075,-0.665593 h 0.260449 l 0.361735,0.472668 h 0.578776 v 0.192925 z m 2.532146,3.163976 v -1.736328 l 0.183279,0.371381 v 1.364947 z m -2.802241,1.379417 0.390674,0.448551 h 3.733106 v -0.448551 h 0.163987 l 0.438905,0.448551 h 0.627007 l 0.231511,-0.390673 h 0.178456 L 36.100121,33.6147 H 35.289834 L 34.937746,33.267434 V 33.6147 h -3.998379 l -0.49196,-0.612538 z m 5.845639,0.03859 0.352089,0.409966 h 4.437284 v -0.863341 l -0.327973,-0.371381 v -0.255626 l 0.516075,0.573953 V 33.6147 h -4.707379 l -0.270096,-0.347266 z m 3.438895,-1.418002 v -3.356901 h 1.244369 v -1.012859 l -0.303858,-0.236333 v -0.236334 l 0.453375,0.40032 v 1.278131 h -1.220253 v 3.163976 z m -3.192915,0.04341 0.752409,-2.001601 v 0.434082 l -0.583599,1.567519 z"
         style="font-style:normal;font-variant:normal;font-weight:bold;font-stretch:normal;font-size:9.87778px;font-family:'UKIJ 3D';-inkscape-font-specification:'UKIJ 3D, Bold';font-variant-ligatures:normal;font-variant-caps:normal;font-variant-numeric:normal;font-variant-east-asian:normal;text-align:center;text-anchor:middle;stroke-width:0.264583"
         id="path928" />
      <path
         d="m 45.519703,27.62919 q -0.395497,0 -0.795817,0.120578 -0.40032,0.120579 -0.56913,0.255626 -0.313504,0.241157 -0.47749,0.776525 -0.159164,0.535368 -0.159164,1.147906 v 0.24598 q 0,0.660769 0.159164,1.118967 0.163986,0.458198 0.622184,0.747586 0.05788,0.03376 0.448552,0.106109 0.395497,0.07235 0.713824,0.08199 0.15434,-0.03376 0.467844,-0.06752 0.313504,-0.03376 0.511252,-0.07717 0.202572,-0.04341 0.390674,-0.15434 0.192925,-0.110932 0.366558,-0.327973 0.115755,-0.163987 0.183279,-0.554661 0.07235,-0.395497 0.07235,-0.815109 v -0.424436 q 0,-0.593246 -0.09646,-0.959804 -0.09164,-0.371381 -0.40032,-0.684885 -0.202572,-0.197749 -0.631831,-0.356912 -0.424436,-0.163987 -0.805464,-0.178456 z m 0.03858,5.49355 q -0.771701,0 -1.442117,-0.178456 -0.670416,-0.173633 -1.186491,-0.549837 -0.511252,-0.381028 -0.810287,-0.998389 -0.294211,-0.622184 -0.303857,-1.466233 0,-0.694531 0.294211,-1.302246 0.294211,-0.607715 0.810287,-1.051444 0.520898,-0.443728 1.186491,-0.684885 0.665592,-0.24598 1.389063,-0.24598 1.032151,0 1.876199,0.429259 0.844049,0.429259 1.331185,1.205784 0.487137,0.776525 0.487137,1.760444 -0.03376,0.795817 -0.33762,1.38424 -0.303857,0.588422 -0.805463,0.959804 -0.496783,0.366558 -1.13826,0.545014 -0.636654,0.178456 -1.350478,0.192925 z m 0.02894,-4.663971 q -0.549837,0 -0.858518,0.226687 -0.212218,0.139871 -0.318327,0.405144 -0.106109,0.260449 -0.135047,0.545014 -0.02894,0.279742 -0.03858,0.786171 0,0.24598 0.0627,0.718647 0.06752,0.467844 0.06752,0.482313 l -0.15434,-0.07717 q -0.02894,-0.01447 -0.09646,-0.487136 -0.06752,-0.477491 -0.06752,-0.800641 0.04823,-0.660769 0.135048,-1.070736 0.08682,-0.409966 0.32315,-0.588422 0.207395,-0.16881 0.434082,-0.217041 0.226688,-0.04823 0.617361,-0.07235 0.366559,0 0.723471,0.106109 0.356912,0.101286 0.40032,0.149517 l 0.05788,0.135048 q -0.09646,-0.0627 -0.376204,-0.149517 -0.274919,-0.09164 -0.718647,-0.09164 z m 0.342443,5.276509 q 0.766878,-0.0048 1.475879,-0.260449 0.709001,-0.250803 1.263661,-0.709001 0.554661,-0.463021 0.872988,-1.099674 0.318327,-0.636654 0.337619,-1.38424 0,-0.395497 -0.106109,-0.766879 -0.106109,-0.371381 -0.255626,-0.670415 -0.144694,-0.299035 -0.270095,-0.477491 -0.120579,-0.178456 -0.139871,-0.178456 0.03376,0.01929 0.159163,0.159164 0.130225,0.139871 0.289388,0.395497 0.159164,0.255626 0.289388,0.627007 0.130225,0.371382 0.154341,0.82958 0,0.824756 -0.332797,1.509641 -0.327973,0.680062 -0.901926,1.167198 -0.573953,0.482314 -1.302246,0.73794 -0.723471,0.260449 -1.514465,0.274919 -0.718647,0 -1.254015,-0.139871 -0.530544,-0.135048 -0.848871,-0.318327 -0.313504,-0.183279 -0.467844,-0.332796 -0.149518,-0.144694 -0.197749,-0.188103 0.250803,0.207395 0.950158,0.516076 0.704177,0.30868 1.799029,0.30868 z"
         style="font-style:normal;font-variant:normal;font-weight:bold;font-stretch:normal;font-size:9.87778px;font-family:'UKIJ 3D';-inkscape-font-specification:'UKIJ 3D, Bold';font-variant-ligatures:normal;font-variant-caps:normal;font-variant-numeric:normal;font-variant-east-asian:normal;text-align:center;text-anchor:middle;stroke-width:0.264583"
         id="path930" />
    </g>
  </g>
</svg>
