<?xml version="1.0" encoding="UTF-8" standalone="no"?>
<svg
   xmlns:dc="http://purl.org/dc/elements/1.1/"
   xmlns:cc="http://creativecommons.org/ns#"
   xmlns:rdf="http://www.w3.org/1999/02/22-rdf-syntax-ns#"
   xmlns:svg="http://www.w3.org/2000/svg"
   xmlns="http://www.w3.org/2000/svg"
   xmlns:sodipodi="http://sodipodi.sourceforge.net/DTD/sodipodi-0.dtd"
   xmlns:inkscape="http://www.inkscape.org/namespaces/inkscape"
   width="256"
   height="256"
   viewBox="0 0 67.733331 67.733331"
   version="1.1"
   id="svg8"
   inkscape:version="1.0.2 (e86c870879, 2021-01-15)"
   sodipodi:docname="sorry.svg">
  <defs
     id="defs2" />
  <sodipodi:namedview
     id="base"
     pagecolor="#ffffff"
     bordercolor="#666666"
     borderopacity="1.0"
     inkscape:pageopacity="0.0"
     inkscape:pageshadow="2"
     inkscape:zoom="1.979899"
     inkscape:cx="117.46026"
     inkscape:cy="135.09921"
     inkscape:document-units="px"
     inkscape:current-layer="layer1"
     inkscape:document-rotation="0"
     showgrid="true"
     units="px"
     inkscape:window-width="1343"
     inkscape:window-height="908"
     inkscape:window-x="123"
     inkscape:window-y="26"
     inkscape:window-maximized="0">
    <inkscape:grid
       type="xygrid"
       id="grid1402" />
  </sodipodi:namedview>
  <metadata
     id="metadata5">
    <rdf:RDF>
      <cc:Work
         rdf:about="">
        <dc:format>image/svg+xml</dc:format>
        <dc:type
           rdf:resource="http://purl.org/dc/dcmitype/StillImage" />
        <dc:title></dc:title>
      </cc:Work>
    </rdf:RDF>
  </metadata>
  <g
     inkscape:label="Layer 1"
     inkscape:groupmode="layer"
     id="layer1">
    <rect
       style="opacity:1;fill:#000000;fill-opacity:0.823442;stroke-width:8.46317;stroke-linecap:round;stroke-linejoin:round;stroke-miterlimit:4;stroke-dasharray:none;stroke-dashoffset:3.5007;paint-order:stroke markers fill"
       id="rect892"
       width="64.822914"
       height="64.822914"
       x="1.4552084"
       y="1.4552084" />
    <g
       aria-label="SORRY
I DIDN'T
FINISH
THE GAME"
       id="text880"
       style="font-weight:bold;font-size:11.9944px;line-height:1;font-family:JuliaMono;-inkscape-font-specification:'JuliaMono, Bold';fill:#ffffff;fill-opacity:0.823442;stroke-width:0.264583">
      <path
         d="m 6.5674738,17.818159 q 0.539748,0.575731 1.04951,0.881589 0.5157592,0.305857 1.0255212,0.305857 0.7076696,0 1.1334708,-0.305857 0.4258012,-0.311855 0.4258012,-0.917572 0,-0.371826 -0.185913,-0.59972 Q 9.8299506,16.954562 9.5360878,16.822624 9.2482222,16.684688 8.6904826,16.498775 8.5945274,16.468789 8.3786282,16.396823 8.162729,16.318859 7.982813,16.246893 7.3291182,15.989013 6.8553394,15.683156 6.3815606,15.371301 6.093695,14.915514 5.8118266,14.459727 5.8118266,13.836018 q 0,-0.737655 0.389818,-1.289398 0.389818,-0.551742 1.079496,-0.845605 0.689678,-0.29986 1.5652692,-0.29986 0.8935828,0 1.5352832,0.317852 0.647698,0.311854 1.259412,0.965549 l -0.971546,0.875591 Q 10.219769,13.122351 9.7759758,12.900455 9.332183,12.672561 8.7744434,12.672561 q -0.4018124,0 -0.7436528,0.125942 -0.3358432,0.119944 -0.539748,0.371826 -0.2039048,0.251882 -0.2039048,0.617712 0,0.38382 0.2458852,0.647697 0.2458852,0.25788 0.6117144,0.425801 0.3718264,0.161925 1.0135268,0.383821 0.8216164,0.281869 1.3373758,0.533751 0.515759,0.251882 0.875591,0.713667 0.365829,0.461784 0.365829,1.181448 0,0.803625 -0.383821,1.403345 -0.38382,0.59972 -1.079496,0.923569 -0.6956748,0.323849 -1.6072492,0.323849 -0.9835408,0 -1.739188,-0.437796 Q 6.1716586,19.4434 5.5599442,18.705745 Z"
         style="font-size:11.9944px;fill:#ffffff;fill-opacity:0.823442;stroke-width:0.264583"
         id="path894" />
      <path
         d="m 15.899099,20.396955 q -1.109482,0 -1.835143,-0.59972 -0.719664,-0.59972 -1.061505,-1.64923 -0.34184,-1.04951 -0.34184,-2.428866 0,-1.319384 0.389818,-2.29093 0.395815,-0.977544 1.127473,-1.4993 0.731659,-0.527754 1.721197,-0.527754 0.995535,0 1.727193,0.515759 0.731659,0.509762 1.121477,1.475311 0.389818,0.96555 0.389818,2.302925 0,1.391351 -0.341841,2.446858 -0.335843,1.055507 -1.061504,1.655227 -0.719664,0.59972 -1.835143,0.59972 z m -0.01199,-1.367361 q 0.869594,0 1.271407,-0.893583 0.407809,-0.893583 0.407809,-2.344906 0,-0.863596 -0.19191,-1.553274 -0.185913,-0.695676 -0.55774,-1.097488 -0.371826,-0.40781 -0.905577,-0.40781 -0.539748,0 -0.917571,0.389818 -0.377824,0.383821 -0.569734,1.079496 -0.191911,0.689678 -0.191911,1.613247 0,1.409342 0.395815,2.31492 0.401813,0.89958 1.259412,0.89958 z"
         style="font-size:11.9944px;fill:#ffffff;fill-opacity:0.823442;stroke-width:0.264583"
         id="path896" />
      <path
         d="m 26.370192,20.241028 h -1.619244 l -1.733191,-3.574331 h -1.145465 v 3.550342 h -1.547278 v -8.69594 h 2.830679 q 0.803625,0 1.475311,0.305857 0.671686,0.305857 1.067502,0.887586 0.395815,0.575731 0.395815,1.373359 0,0.863596 -0.431799,1.469314 -0.425801,0.59972 -1.181448,0.881588 z m -4.4979,-7.436528 v 2.542813 h 0.863597 q 1.859132,0 1.859132,-1.271407 0,-0.617711 -0.455787,-0.94156 Q 23.689444,12.8045 22.987771,12.8045 Z"
         style="font-size:11.9944px;fill:#ffffff;fill-opacity:0.823442;stroke-width:0.264583"
         id="path898" />
      <path
         d="M 33.566815,20.241028 H 31.947571 L 30.21438,16.666697 h -1.145465 v 3.550342 h -1.547278 v -8.69594 h 2.830679 q 0.803624,0 1.475311,0.305857 0.671686,0.305857 1.067501,0.887586 0.395816,0.575731 0.395816,1.373359 0,0.863596 -0.431799,1.469314 -0.425801,0.59972 -1.181448,0.881588 z m -4.4979,-7.436528 v 2.542813 h 0.863597 q 1.859132,0 1.859132,-1.271407 0,-0.617711 -0.455788,-0.94156 Q 30.886066,12.8045 30.184394,12.8045 Z"
         style="font-size:11.9944px;fill:#ffffff;fill-opacity:0.823442;stroke-width:0.264583"
         id="path900" />
      <path
         d="m 38.328573,20.217039 h -1.667222 v -3.346437 l -2.242953,-5.349503 h 1.691211 l 1.403344,3.682281 1.391351,-3.682281 h 1.655227 l -2.230958,5.349503 z"
         style="font-size:11.9944px;fill:#ffffff;fill-opacity:0.823442;stroke-width:0.264583"
         id="path902" />
      <path
         d="M 10.885458,32.211439 H 6.5075018 v -1.235423 h 1.439328 v -6.225094 h -1.319384 v -1.235423 h 4.1380682 v 1.235423 H 9.482113 v 6.225094 h 1.403345 z"
         style="font-size:11.9944px;fill:#ffffff;fill-opacity:0.823442;stroke-width:0.264583"
         id="path904" />
      <path
         d="m 20.289031,32.211439 v -8.69594 h 1.883121 q 1.34937,0 2.20697,0.413807 0.857599,0.413807 1.2834,1.355367 0.431799,0.941561 0.431799,2.524821 0,1.583261 -0.401813,2.542813 -0.395815,0.959552 -1.277403,1.409342 -0.875591,0.44979 -2.338908,0.44979 z m 1.955087,-1.307389 q 0.785634,0 1.259412,-0.347838 0.479776,-0.347838 0.689678,-1.025521 0.209902,-0.683681 0.209902,-1.721197 0,-1.469314 -0.473778,-2.224961 -0.473779,-0.761644 -1.577264,-0.761644 h -0.515759 v 6.081161 z"
         style="font-size:11.9944px;fill:#ffffff;fill-opacity:0.823442;stroke-width:0.264583"
         id="path906" />
      <path
         d="m 32.475324,32.211439 h -4.377956 v -1.235423 h 1.439328 v -6.225094 h -1.319384 v -1.235423 h 4.138068 v 1.235423 h -1.2834 v 6.225094 h 1.403344 z"
         style="font-size:11.9944px;fill:#ffffff;fill-opacity:0.823442;stroke-width:0.264583"
         id="path908" />
      <path
         d="m 34.682275,32.211439 v -8.69594 h 1.883121 q 1.34937,0 2.206969,0.413807 0.8576,0.413807 1.283401,1.355367 0.431799,0.941561 0.431799,2.524821 0,1.583261 -0.401813,2.542813 -0.395815,0.959552 -1.277403,1.409342 -0.875592,0.44979 -2.338908,0.44979 z m 1.955087,-1.307389 q 0.785633,0 1.259412,-0.347838 0.479776,-0.347838 0.689678,-1.025521 0.209902,-0.683681 0.209902,-1.721197 0,-1.469314 -0.473779,-2.224961 -0.473778,-0.761644 -1.577263,-0.761644 h -0.515759 v 6.081161 z"
         style="font-size:11.9944px;fill:#ffffff;fill-opacity:0.823442;stroke-width:0.264583"
         id="path910" />
      <path
         d="m 43.414179,32.211439 h -1.487306 v -8.69594 h 1.943093 l 1.703205,4.989671 0.347838,1.055507 v -6.045178 h 1.4993 v 8.69594 H 45.59716 l -2.182981,-5.937228 z"
         style="font-size:11.9944px;fill:#ffffff;fill-opacity:0.823442;stroke-width:0.264583"
         id="path912" />
      <path
         d="m 52.553897,26.646038 h -1.30739 l -0.359832,-4.210035 h 2.015059 z"
         style="font-size:11.9944px;fill:#ffffff;fill-opacity:0.823442;stroke-width:0.264583"
         id="path914" />
      <path
         d="M 59.858467,32.211439 H 58.31119 v -7.328578 h -2.326914 v -1.367362 h 6.18911 v 1.367362 h -2.314919 z"
         style="font-size:11.9944px;fill:#ffffff;fill-opacity:0.823442;stroke-width:0.264583"
         id="path916" />
      <path
         d="M 7.4790482,44.205839 H 5.9317706 v -8.69594 h 5.5294184 v 1.319384 H 7.4790482 v 2.494835 h 3.7302588 v 1.295396 H 7.4790482 Z"
         style="font-size:11.9944px;fill:#ffffff;fill-opacity:0.823442;stroke-width:0.264583"
         id="path918" />
      <path
         d="m 18.08208,44.205839 h -4.377956 v -1.235423 h 1.439328 v -6.225094 h -1.319384 v -1.235423 h 4.138068 v 1.235423 h -1.283401 v 6.225094 h 1.403345 z"
         style="font-size:11.9944px;fill:#ffffff;fill-opacity:0.823442;stroke-width:0.264583"
         id="path920" />
      <path
         d="m 21.824314,44.205839 h -1.487305 v -8.69594 h 1.943093 l 1.703204,4.989671 0.347838,1.055507 v -6.045178 h 1.4993 v 8.69594 h -1.823149 l -2.182981,-5.937228 z"
         style="font-size:11.9944px;fill:#ffffff;fill-opacity:0.823442;stroke-width:0.264583"
         id="path922" />
      <path
         d="m 32.475324,44.205839 h -4.377956 v -1.235423 h 1.439328 v -6.225094 h -1.319384 v -1.235423 h 4.138068 v 1.235423 h -1.2834 v 6.225094 h 1.403344 z"
         style="font-size:11.9944px;fill:#ffffff;fill-opacity:0.823442;stroke-width:0.264583"
         id="path924" />
      <path
         d="m 35.353961,41.806959 q 0.539748,0.575731 1.04951,0.881589 0.51576,0.305857 1.025522,0.305857 0.707669,0 1.13347,-0.305857 0.425802,-0.311855 0.425802,-0.917572 0,-0.371826 -0.185914,-0.59972 -0.185913,-0.227894 -0.479776,-0.359832 -0.287865,-0.137936 -0.845605,-0.323849 -0.09596,-0.02999 -0.311854,-0.101952 -0.215899,-0.07796 -0.395815,-0.14993 -0.653695,-0.25788 -1.127474,-0.563737 -0.473779,-0.311854 -0.761644,-0.767642 -0.281869,-0.455787 -0.281869,-1.079496 0,-0.737655 0.389818,-1.289398 0.389818,-0.551742 1.079496,-0.845605 0.689678,-0.29986 1.565269,-0.29986 0.893583,0 1.535284,0.317852 0.647697,0.311854 1.259412,0.965549 l -0.971547,0.875591 q -0.44979,-0.437795 -0.893583,-0.659692 -0.443792,-0.227893 -1.001532,-0.227893 -0.401812,0 -0.743653,0.125941 -0.335843,0.119944 -0.539748,0.371826 -0.203905,0.251883 -0.203905,0.617712 0,0.383821 0.245886,0.647697 0.245885,0.25788 0.611714,0.425802 0.371826,0.161924 1.013527,0.38382 0.821616,0.281869 1.337375,0.533751 0.51576,0.251883 0.875592,0.713667 0.365829,0.461784 0.365829,1.181448 0,0.803625 -0.383821,1.403345 -0.383821,0.59972 -1.079496,0.923569 -0.695675,0.323849 -1.60725,0.323849 -0.98354,0 -1.739188,-0.437796 -0.755647,-0.443793 -1.367361,-1.181448 z"
         style="font-size:11.9944px;fill:#ffffff;fill-opacity:0.823442;stroke-width:0.264583"
         id="path926" />
      <path
         d="m 43.510134,44.205839 h -1.535283 v -8.69594 h 1.535283 v 3.478376 h 2.362897 v -3.478376 h 1.535283 v 8.69594 h -1.535283 v -3.862197 h -2.362897 z"
         style="font-size:11.9944px;fill:#ffffff;fill-opacity:0.823442;stroke-width:0.264583"
         id="path928" />
      <path
         d="M 9.482113,56.200239 H 7.9348354 V 48.871661 H 5.6079218 v -1.367362 h 6.1891102 v 1.367362 H 9.482113 Z"
         style="font-size:11.9944px;fill:#ffffff;fill-opacity:0.823442;stroke-width:0.264583"
         id="path930" />
      <path
         d="m 14.723648,56.200239 h -1.535284 v -8.69594 h 1.535284 v 3.478376 h 2.362896 v -3.478376 h 1.535284 v 8.69594 h -1.535284 v -3.862197 h -2.362896 z"
         style="font-size:11.9944px;fill:#ffffff;fill-opacity:0.823442;stroke-width:0.264583"
         id="path932" />
      <path
         d="M 25.938394,56.200239 H 20.31302 v -8.69594 h 5.457452 v 1.319384 h -3.89818 v 2.218964 h 3.70627 v 1.319384 h -3.70627 v 2.530819 h 4.066102 z"
         style="font-size:11.9944px;fill:#ffffff;fill-opacity:0.823442;stroke-width:0.264583"
         id="path934" />
      <path
         d="m 37.572925,56.332178 q -1.025521,0 -1.709202,-0.563737 -0.677683,-0.569734 -1.007529,-1.577264 -0.329846,-1.013527 -0.329846,-2.356899 0,-1.361365 0.34184,-2.362897 0.341841,-1.001533 1.04951,-1.553275 0.713667,-0.55774 1.793163,-0.55774 0.911574,0 1.60725,0.395816 0.701672,0.395815 1.061504,1.115479 l -1.031518,0.779636 q -0.317852,-0.533751 -0.701673,-0.725661 -0.383821,-0.197908 -0.809622,-0.197908 -1.031518,0 -1.409342,0.833611 -0.377823,0.827613 -0.377823,2.242953 0,1.463316 0.365829,2.368894 0.371826,0.89958 1.325381,0.89958 0.785633,0 1.169454,-0.629706 0.389818,-0.635704 0.389818,-1.697208 h -1.739188 v -1.187446 h 3.010594 v 4.641833 h -1.211434 v -0.719664 h -0.05997 q -0.19191,0.395815 -0.635703,0.623709 -0.437796,0.227894 -1.091491,0.227894 z"
         style="font-size:11.9944px;fill:#ffffff;fill-opacity:0.823442;stroke-width:0.264583"
         id="path936" />
      <path
         d="m 42.994375,56.200239 h -1.415339 l 2.063037,-8.69594 h 2.111014 l 2.051043,8.69594 h -1.535284 l -0.503764,-2.051042 h -2.290931 z m 1.619244,-7.220629 -0.79163,3.922169 h 1.739188 L 44.757552,48.97961 Z"
         style="font-size:11.9944px;fill:#ffffff;fill-opacity:0.823442;stroke-width:0.264583"
         id="path938" />
      <path
         d="m 51.876213,51.042647 0.953555,-3.538348 h 1.943093 v 8.69594 h -1.463317 v -6.015191 l -0.04198,0.113946 -0.02399,0.155928 -1.001533,3.49037 h -0.719664 l -0.989538,-3.49037 -0.03598,-0.155928 -0.05398,-0.113946 v 6.015191 H 48.99156 v -8.69594 h 1.943093 z"
         style="font-size:11.9944px;fill:#ffffff;fill-opacity:0.823442;stroke-width:0.264583"
         id="path940" />
      <path
         d="M 61.921504,56.200239 H 56.29613 v -8.69594 h 5.457452 v 1.319384 h -3.89818 v 2.218964 h 3.70627 v 1.319384 h -3.70627 v 2.530819 h 4.066102 z"
         style="font-size:11.9944px;fill:#ffffff;fill-opacity:0.823442;stroke-width:0.264583"
         id="path942" />
    </g>
  </g>
</svg>
