<?xml version="1.0" encoding="UTF-8" standalone="no"?>
<svg
   xmlns:dc="http://purl.org/dc/elements/1.1/"
   xmlns:cc="http://creativecommons.org/ns#"
   xmlns:rdf="http://www.w3.org/1999/02/22-rdf-syntax-ns#"
   xmlns:svg="http://www.w3.org/2000/svg"
   xmlns="http://www.w3.org/2000/svg"
   xmlns:xlink="http://www.w3.org/1999/xlink"
   xmlns:sodipodi="http://sodipodi.sourceforge.net/DTD/sodipodi-0.dtd"
   xmlns:inkscape="http://www.inkscape.org/namespaces/inkscape"
   width="256"
   height="256"
   viewBox="0 0 67.733331 67.733331"
   version="1.1"
   id="svg8"
   inkscape:version="1.0.2 (e86c870879, 2021-01-15)"
   sodipodi:docname="sugar.svg">
  <defs
     id="defs2">
    <linearGradient
       inkscape:collect="always"
       id="linearGradient4303">
      <stop
         style="stop-color:#e07878;stop-opacity:1;"
         offset="0"
         id="stop4299" />
      <stop
         style="stop-color:#8192d5;stop-opacity:1"
         offset="1"
         id="stop4301" />
    </linearGradient>
    <linearGradient
       inkscape:collect="always"
       xlink:href="#linearGradient4303"
       id="linearGradient4305"
       x1="125"
       y1="235"
       x2="125"
       y2="160"
       gradientUnits="userSpaceOnUse" />
  </defs>
  <sodipodi:namedview
     id="base"
     pagecolor="#ffffff"
     bordercolor="#666666"
     borderopacity="1.0"
     inkscape:pageopacity="0.0"
     inkscape:pageshadow="2"
     inkscape:zoom="1.979899"
     inkscape:cx="107.07836"
     inkscape:cy="196.38253"
     inkscape:document-units="px"
     inkscape:current-layer="layer1"
     inkscape:document-rotation="0"
     showgrid="true"
     units="px"
     inkscape:window-width="1343"
     inkscape:window-height="908"
     inkscape:window-x="144"
     inkscape:window-y="47"
     inkscape:window-maximized="0">
    <inkscape:grid
       type="xygrid"
       id="grid1402" />
  </sodipodi:namedview>
  <metadata
     id="metadata5">
    <rdf:RDF>
      <cc:Work
         rdf:about="">
        <dc:format>image/svg+xml</dc:format>
        <dc:type
           rdf:resource="http://purl.org/dc/dcmitype/StillImage" />
        <dc:title></dc:title>
      </cc:Work>
    </rdf:RDF>
  </metadata>
  <g
     inkscape:label="Layer 1"
     inkscape:groupmode="layer"
     id="layer1">
    <rect
       style="fill:#e9caaa;stroke-width:1.32292;stroke-linecap:round;stroke-linejoin:round;stroke-dashoffset:3.5007;paint-order:stroke markers fill;fill-opacity:1"
       id="rect831"
       width="41.010414"
       height="56.885414"
       x="13.229166"
       y="5.2916665" />
    <path
       id="path4223"
       style="color:#000000;font-style:normal;font-variant:normal;font-weight:normal;font-stretch:normal;font-size:medium;line-height:normal;font-family:sans-serif;font-variant-ligatures:normal;font-variant-position:normal;font-variant-caps:normal;font-variant-numeric:normal;font-variant-alternates:normal;font-variant-east-asian:normal;font-feature-settings:normal;font-variation-settings:normal;text-indent:0;text-align:start;text-decoration:none;text-decoration-line:none;text-decoration-style:solid;text-decoration-color:#000000;letter-spacing:normal;word-spacing:normal;text-transform:none;writing-mode:lr-tb;direction:ltr;text-orientation:mixed;dominant-baseline:auto;baseline-shift:baseline;text-anchor:start;white-space:normal;shape-padding:0;shape-margin:0;inline-size:0;clip-rule:nonzero;display:inline;overflow:visible;visibility:visible;isolation:auto;mix-blend-mode:normal;color-interpolation:sRGB;color-interpolation-filters:linearRGB;solid-color:#000000;solid-opacity:1;vector-effect:none;fill:url(#linearGradient4305);fill-opacity:1;fill-rule:nonzero;stroke:none;stroke-width:5.00001;stroke-linecap:round;stroke-linejoin:round;stroke-miterlimit:4;stroke-dasharray:none;stroke-dashoffset:3.5007;stroke-opacity:1;paint-order:stroke markers fill;color-rendering:auto;image-rendering:auto;shape-rendering:auto;text-rendering:auto;enable-background:accumulate;stop-color:#000000"
       d="M 50 177.67188 L 50 235 L 205 235 L 205 173.93359 C 183.79678 158.91197 157.96253 150 130 150 C 99.795774 150 72.071216 160.3917 50 177.67188 z "
       transform="scale(0.26458332)" />
    <path
       id="path4228"
       style="color:#000000;font-style:normal;font-variant:normal;font-weight:normal;font-stretch:normal;font-size:medium;line-height:normal;font-family:sans-serif;font-variant-ligatures:normal;font-variant-position:normal;font-variant-caps:normal;font-variant-numeric:normal;font-variant-alternates:normal;font-variant-east-asian:normal;font-feature-settings:normal;font-variation-settings:normal;text-indent:0;text-align:start;text-decoration:none;text-decoration-line:none;text-decoration-style:solid;text-decoration-color:#000000;letter-spacing:normal;word-spacing:normal;text-transform:none;writing-mode:lr-tb;direction:ltr;text-orientation:mixed;dominant-baseline:auto;baseline-shift:baseline;text-anchor:start;white-space:normal;shape-padding:0;shape-margin:0;inline-size:0;clip-rule:nonzero;display:inline;overflow:visible;visibility:visible;isolation:auto;mix-blend-mode:normal;color-interpolation:sRGB;color-interpolation-filters:linearRGB;solid-color:#000000;solid-opacity:1;vector-effect:none;fill:#6775ff;fill-opacity:1;fill-rule:nonzero;stroke:none;stroke-width:3.77953;stroke-linecap:round;stroke-linejoin:round;stroke-miterlimit:4;stroke-dasharray:none;stroke-dashoffset:3.5007;stroke-opacity:1;paint-order:stroke markers fill;color-rendering:auto;image-rendering:auto;shape-rendering:auto;text-rendering:auto;enable-background:accumulate;stop-color:#000000"
       d="M 50 174.57227 L 50 180.77734 C 71.877841 163.11874 99.680243 152.50195 130.00195 152.50195 C 158.07767 152.50195 183.94246 161.67263 205 177.0332 L 205 170.83203 C 183.66569 156.14096 157.84916 147.49805 130.00195 147.49805 C 99.913171 147.49805 72.250451 157.65713 50 174.57227 z "
       transform="scale(0.26458332)" />
    <path
       id="path4231"
       style="color:#000000;font-style:normal;font-variant:normal;font-weight:normal;font-stretch:normal;font-size:medium;line-height:normal;font-family:sans-serif;font-variant-ligatures:normal;font-variant-position:normal;font-variant-caps:normal;font-variant-numeric:normal;font-variant-alternates:normal;font-variant-east-asian:normal;font-feature-settings:normal;font-variation-settings:normal;text-indent:0;text-align:start;text-decoration:none;text-decoration-line:none;text-decoration-style:solid;text-decoration-color:#000000;letter-spacing:normal;word-spacing:normal;text-transform:none;writing-mode:lr-tb;direction:ltr;text-orientation:mixed;dominant-baseline:auto;baseline-shift:baseline;text-anchor:start;white-space:normal;shape-padding:0;shape-margin:0;inline-size:0;clip-rule:nonzero;display:inline;overflow:visible;visibility:visible;isolation:auto;mix-blend-mode:normal;color-interpolation:sRGB;color-interpolation-filters:linearRGB;solid-color:#000000;solid-opacity:1;vector-effect:none;fill:#6775ff;fill-opacity:1;fill-rule:nonzero;stroke:none;stroke-width:1;stroke-linecap:round;stroke-linejoin:round;stroke-miterlimit:4;stroke-dasharray:none;stroke-dashoffset:3.5007;stroke-opacity:1;paint-order:stroke markers fill;color-rendering:auto;image-rendering:auto;shape-rendering:auto;text-rendering:auto;enable-background:accumulate;stop-color:#000000"
       d="m 13.229166,40.677104 v 1.641759 c 5.788512,-4.672171 13.144564,-7.481197 21.167182,-7.481197 7.428367,0 14.271759,2.426409 19.843233,6.49056 v -1.640727 c -5.644703,-3.887012 -12.475326,-6.173782 -19.843233,-6.173782 -7.96099,0 -15.280084,2.687924 -21.167182,7.163387 z" />
    <rect
       style="fill:#488dcf;fill-opacity:0.996669;stroke:none;stroke-width:1.14568;stroke-linecap:round;stroke-linejoin:round;stroke-miterlimit:4;stroke-dasharray:none;stroke-dashoffset:3.5007;stroke-opacity:1;paint-order:stroke markers fill"
       id="rect4297"
       width="35.71875"
       height="19.843748"
       x="15.874999"
       y="11.90625" />
    <path
       id="path4252"
       style="color:#000000;font-style:normal;font-variant:normal;font-weight:normal;font-stretch:normal;font-size:medium;line-height:normal;font-family:sans-serif;font-variant-ligatures:normal;font-variant-position:normal;font-variant-caps:normal;font-variant-numeric:normal;font-variant-alternates:normal;font-variant-east-asian:normal;font-feature-settings:normal;font-variation-settings:normal;text-indent:0;text-align:start;text-decoration:none;text-decoration-line:none;text-decoration-style:solid;text-decoration-color:#000000;letter-spacing:normal;word-spacing:normal;text-transform:none;writing-mode:lr-tb;direction:ltr;text-orientation:mixed;dominant-baseline:auto;baseline-shift:baseline;text-anchor:start;white-space:normal;shape-padding:0;shape-margin:0;inline-size:0;clip-rule:nonzero;display:inline;overflow:visible;visibility:visible;isolation:auto;mix-blend-mode:normal;color-interpolation:sRGB;color-interpolation-filters:linearRGB;solid-color:#000000;solid-opacity:1;vector-effect:none;fill:#bfc4f5;fill-opacity:1;fill-rule:nonzero;stroke:none;stroke-width:3.77953;stroke-linecap:round;stroke-linejoin:round;stroke-miterlimit:4;stroke-dasharray:none;stroke-dashoffset:3.5007;stroke-opacity:1;paint-order:stroke markers fill;color-rendering:auto;image-rendering:auto;shape-rendering:auto;text-rendering:auto;enable-background:accumulate;stop-color:#000000"
       d="M 129.99805 192.49805 A 2.5002563 2.5002563 0 0 0 127.50195 195 L 127.50195 235 L 187.50195 235 L 187.50195 195 A 2.5002563 2.5002563 0 0 0 185 192.49805 L 129.99805 192.49805 z M 132.5 197.50195 L 182.49805 197.50195 L 182.49805 232.5 L 132.5 232.5 L 132.5 197.50195 z "
       transform="scale(0.26458332)" />
    <path
       style="color:#000000;font-style:normal;font-variant:normal;font-weight:normal;font-stretch:normal;font-size:medium;line-height:normal;font-family:sans-serif;font-variant-ligatures:normal;font-variant-position:normal;font-variant-caps:normal;font-variant-numeric:normal;font-variant-alternates:normal;font-variant-east-asian:normal;font-feature-settings:normal;font-variation-settings:normal;text-indent:0;text-align:start;text-decoration:none;text-decoration-line:none;text-decoration-style:solid;text-decoration-color:#000000;letter-spacing:normal;word-spacing:normal;text-transform:none;writing-mode:lr-tb;direction:ltr;text-orientation:mixed;dominant-baseline:auto;baseline-shift:baseline;text-anchor:start;white-space:normal;shape-padding:0;shape-margin:0;inline-size:0;clip-rule:nonzero;display:inline;overflow:visible;visibility:visible;isolation:auto;mix-blend-mode:normal;color-interpolation:sRGB;color-interpolation-filters:linearRGB;solid-color:#000000;solid-opacity:1;vector-effect:none;fill:#bfc4f5;fill-opacity:1;fill-rule:nonzero;stroke:none;stroke-width:1.32292;stroke-linecap:round;stroke-linejoin:round;stroke-miterlimit:4;stroke-dasharray:none;stroke-dashoffset:3.5007;stroke-opacity:1;paint-order:stroke markers fill;color-rendering:auto;image-rendering:auto;shape-rendering:auto;text-rendering:auto;enable-background:accumulate;stop-color:#000000"
       d="M 34.395832,51.593746 H 48.947915 V 62.177081 H 34.395832 Z"
       id="path4254" />
    <ellipse
       style="fill:#727272;fill-opacity:1;stroke:#bfc4f5;stroke-width:1.32292;stroke-linecap:round;stroke-linejoin:round;stroke-miterlimit:4;stroke-dasharray:none;stroke-dashoffset:3.5007;stroke-opacity:1;paint-order:stroke markers fill"
       id="path4233"
       cx="41.671875"
       cy="50.932289"
       rx="7.2760415"
       ry="3.3072915" />
    <path
       id="path4241"
       style="fill:#000000;fill-opacity:1;stroke:none;stroke-width:1.32292;stroke-linecap:round;stroke-linejoin:round;stroke-miterlimit:4;stroke-dasharray:none;stroke-dashoffset:3.5007;stroke-opacity:1;paint-order:stroke markers fill"
       d="m 35.011299,52.365794 a 7.2760413,3.3072915 0 0 0 0.03049,0.03152 7.2760413,3.3072915 0 0 0 0.05581,0.05478 7.2760413,3.3072915 0 0 0 0.05736,0.05374 7.2760413,3.3072915 0 0 0 0.05994,0.05374 7.2760413,3.3072915 0 0 0 0.06253,0.05323 7.2760413,3.3072915 0 0 0 0.06408,0.05271 7.2760413,3.3072915 0 0 0 0.06615,0.05219 7.2760413,3.3072915 0 0 0 0.06821,0.05116 7.2760413,3.3072915 0 0 0 0.0708,0.05116 7.2760413,3.3072915 0 0 0 0.07235,0.05013 7.2760413,3.3072915 0 0 0 0.07441,0.05013 7.2760413,3.3072915 0 0 0 0.07648,0.04909 7.2760413,3.3072915 0 0 0 0.07855,0.04857 7.2760413,3.3072915 0 0 0 0.0801,0.04754 7.2760413,3.3072915 0 0 0 0.08217,0.04702 7.2760413,3.3072915 0 0 0 0.08423,0.04651 7.2760413,3.3072915 0 0 0 0.08578,0.04599 7.2760413,3.3072915 0 0 0 0.08785,0.04496 7.2760413,3.3072915 0 0 0 0.0894,0.04444 7.2760413,3.3072915 0 0 0 0.09147,0.04341 7.2760413,3.3072915 0 0 0 0.09302,0.04289 7.2760413,3.3072915 0 0 0 0.09457,0.04186 7.2760413,3.3072915 0 0 0 0.09663,0.04134 7.2760413,3.3072915 0 0 0 0.09819,0.04031 7.2760413,3.3072915 0 0 0 0.09974,0.03979 7.2760413,3.3072915 0 0 0 0.100769,0.03876 7.2760413,3.3072915 0 0 0 0.102836,0.03824 7.2760413,3.3072915 0 0 0 0.104386,0.03669 7.2760413,3.3072915 0 0 0 0.105937,0.03617 7.2760413,3.3072915 0 0 0 0.10697,0.03566 7.2760413,3.3072915 0 0 0 0.108521,0.03462 7.2760413,3.3072915 0 0 0 0.11007,0.03307 7.2760413,3.3072915 0 0 0 0.111105,0.03307 7.2760413,3.3072915 0 0 0 0.112654,0.03153 7.2760413,3.3072915 0 0 0 0.113689,0.03049 7.2760413,3.3072915 0 0 0 0.114721,0.02997 7.2760413,3.3072915 0 0 0 0.116272,0.02894 7.2760413,3.3072915 0 0 0 0.117306,0.0279 7.2760413,3.3072915 0 0 0 0.118339,0.02687 7.2760413,3.3072915 0 0 0 0.119372,0.02585 7.2760413,3.3072915 0 0 0 0.120406,0.02532 7.2760413,3.3072915 0 0 0 0.12144,0.02376 7.2760413,3.3072915 0 0 0 0.122473,0.02273 7.2760413,3.3072915 0 0 0 0.123507,0.02222 7.2760413,3.3072915 0 0 0 0.124023,0.02066 7.2760413,3.3072915 0 0 0 0.125057,0.02016 7.2760413,3.3072915 0 0 0 0.125574,0.0186 7.2760413,3.3072915 0 0 0 0.126607,0.0181 7.2760413,3.3072915 0 0 0 0.127124,0.01654 7.2760413,3.3072915 0 0 0 0.127641,0.0155 7.2760413,3.3072915 0 0 0 0.128674,0.01497 7.2760413,3.3072915 0 0 0 0.128675,0.01344 7.2760413,3.3072915 0 0 0 0.129707,0.01241 7.2760413,3.3072915 0 0 0 0.129708,0.01138 7.2760413,3.3072915 0 0 0 0.130742,0.01035 7.2760413,3.3072915 0 0 0 0.130741,0.0093 7.2760413,3.3072915 0 0 0 0.131258,0.0083 7.2760413,3.3072915 0 0 0 0.131258,0.0072 7.2760413,3.3072915 0 0 0 0.131775,0.0057 7.2760413,3.3072915 0 0 0 0.131775,0.0052 7.2760413,3.3072915 0 0 0 0.132292,0.0036 7.2760413,3.3072915 0 0 0 0.132291,0.0031 7.2760413,3.3072915 0 0 0 0.132292,0.0016 7.2760413,3.3072915 0 0 0 0.132292,5.29e-4 7.2760413,3.3072915 0 0 0 0.04392,0 7.2760413,3.3072915 0 0 0 0.132808,-0.0011 7.2760413,3.3072915 0 0 0 0.132292,-0.0021 7.2760413,3.3072915 0 0 0 0.131775,-0.0031 7.2760413,3.3072915 0 0 0 0.132291,-0.0041 7.2760413,3.3072915 0 0 0 0.131775,-0.0052 7.2760413,3.3072915 0 0 0 0.131775,-0.0067 7.2760413,3.3072915 0 0 0 0.131258,-0.0072 7.2760413,3.3072915 0 0 0 0.131258,-0.0088 7.2760413,3.3072915 0 0 0 0.130742,-0.0093 7.2760413,3.3072915 0 0 0 0.130224,-0.01085 7.2760413,3.3072915 0 0 0 0.129708,-0.01188 7.2760413,3.3072915 0 0 0 0.129191,-0.01291 7.2760413,3.3072915 0 0 0 0.128675,-0.01394 7.2760413,3.3072915 0 0 0 0.128157,-0.01498 7.2760413,3.3072915 0 0 0 0.127641,-0.01601 7.2760413,3.3072915 0 0 0 0.127124,-0.01707 7.2760413,3.3072915 0 0 0 0.12609,-0.0181 7.2760413,3.3072915 0 0 0 0.125574,-0.01913 7.2760413,3.3072915 0 0 0 0.12454,-0.02016 7.2760413,3.3072915 0 0 0 0.124024,-0.02119 7.2760413,3.3072915 0 0 0 0.12299,-0.02223 7.2760413,3.3072915 0 0 0 0.121956,-0.02326 7.2760413,3.3072915 0 0 0 0.12144,-0.02429 7.2760413,3.3072915 0 0 0 0.119889,-0.02532 7.2760413,3.3072915 0 0 0 0.118856,-0.02635 7.2760413,3.3072915 0 0 0 0.118339,-0.02739 7.2760413,3.3072915 0 0 0 0.116789,-0.02791 7.2760413,3.3072915 0 0 0 0.115755,-0.02946 7.2760413,3.3072915 0 0 0 0.114721,-0.02997 7.2760413,3.3072915 0 0 0 0.113172,-0.03101 7.2760413,3.3072915 0 0 0 0.112138,-0.03204 7.2760413,3.3072915 0 0 0 0.111104,-0.03307 7.2760413,3.3072915 0 0 0 0.109037,-0.03411 7.2760413,3.3072915 0 0 0 0.108521,-0.03462 7.2760413,3.3072915 0 0 0 0.106453,-0.03565 7.2760413,3.3072915 0 0 0 0.10542,-0.03617 7.2760413,3.3072915 0 0 0 0.103353,-0.03772 7.2760413,3.3072915 0 0 0 0.102319,-0.03824 7.2760413,3.3072915 0 0 0 0.100769,-0.03876 7.2760413,3.3072915 0 0 0 0.09922,-0.03979 7.2760413,3.3072915 0 0 0 0.09715,-0.04082 7.2760413,3.3072915 0 0 0 0.09612,-0.04186 7.2760413,3.3072915 0 0 0 0.09405,-0.04186 7.2760413,3.3072915 0 0 0 0.0925,-0.04341 7.2760413,3.3072915 0 0 0 0.09095,-0.04393 7.2760413,3.3072915 0 0 0 0.08888,-0.04444 7.2760413,3.3072915 0 0 0 0.08733,-0.04496 7.2760413,3.3072915 0 0 0 0.08527,-0.04599 7.2760413,3.3072915 0 0 0 0.0832,-0.04703 7.2760413,3.3072915 0 0 0 0.08165,-0.04702 7.2760413,3.3072915 0 0 0 0.07958,-0.04806 7.2760413,3.3072915 0 0 0 0.07803,-0.04909 7.2760413,3.3072915 0 0 0 0.07545,-0.04909 7.2760413,3.3072915 0 0 0 0.0739,-0.05013 7.2760413,3.3072915 0 0 0 0.07183,-0.05064 7.2760413,3.3072915 0 0 0 0.06976,-0.05116 7.2760413,3.3072915 0 0 0 0.0677,-0.05168 7.2760413,3.3072915 0 0 0 0.06563,-0.05219 7.2760413,3.3072915 0 0 0 0.06356,-0.05271 7.2760413,3.3072915 0 0 0 0.0615,-0.05323 7.2760413,3.3072915 0 0 0 0.05891,-0.05374 7.2760413,3.3072915 0 0 0 0.05736,-0.05426 7.2760413,3.3072915 0 0 0 0.05478,-0.05478 7.2760413,3.3072915 0 0 0 0.0124,-0.01291 7.2760413,3.3072915 0 0 0 -6.660575,-1.976623 7.2760413,3.3072915 0 0 0 -6.660575,1.976107 z" />
    <g
       id="g4283"
       transform="matrix(-1.11624,0,0,1,48.978706,2.6111869)">
      <path
         id="rect4266"
         style="fill:#ffffff;fill-opacity:1;stroke:none;stroke-width:1.32292;stroke-linecap:round;stroke-linejoin:round;stroke-miterlimit:4;stroke-dasharray:none;stroke-dashoffset:3.5007;stroke-opacity:1;paint-order:stroke markers fill"
         transform="rotate(44.108178)"
         d="m 46.475304,19.434589 9.3533,0.145599 -0.09288,3.823151 h -9.260416 z"
         sodipodi:nodetypes="ccccc" />
      <path
         id="rect4268"
         style="fill:#aeaeae;fill-opacity:1;stroke:none;stroke-width:5.00001;stroke-linecap:round;stroke-linejoin:round;stroke-miterlimit:4;stroke-dasharray:none;stroke-dashoffset:3.5007;stroke-opacity:1;paint-order:stroke markers fill"
         d="m 64.560547,185.76953 0.308594,4.86914 L 90,215 100.30859,204.86914 100,200 89.691406,210.13086 Z"
         transform="scale(0.26458332)" />
    </g>
    <g
       id="g4289"
       transform="rotate(-0.49878196,-572.79988,-1925.2654)">
      <path
         id="path4285"
         style="fill:#ffffff;fill-opacity:1;stroke:none;stroke-width:1.32292;stroke-linecap:round;stroke-linejoin:round;stroke-miterlimit:4;stroke-dasharray:none;stroke-dashoffset:3.5007;stroke-opacity:1;paint-order:stroke markers fill"
         transform="rotate(44.108178)"
         d="m 46.475304,19.434589 9.3533,0.145599 -0.09288,3.823151 h -9.260416 z"
         sodipodi:nodetypes="ccccc" />
      <path
         id="path4287"
         style="fill:#aeaeae;fill-opacity:1;stroke:none;stroke-width:5.00001;stroke-linecap:round;stroke-linejoin:round;stroke-miterlimit:4;stroke-dasharray:none;stroke-dashoffset:3.5007;stroke-opacity:1;paint-order:stroke markers fill"
         d="m 64.560547,185.76953 0.308594,4.86914 L 90,215 100.30859,204.86914 100,200 89.691406,210.13086 Z"
         transform="scale(0.26458332)" />
    </g>
    <g
       aria-label="WHITE
RUSH"
       id="text4293"
       style="font-weight:bold;font-size:11.2889px;line-height:0.8;font-family:JuliaMono;-inkscape-font-specification:'JuliaMono, Bold';text-align:center;text-anchor:middle;fill:#ffffff;fill-opacity:1;stroke-width:0.264583">
      <path
         d="M 19.779094,21.317822 H 18.164781 L 17.46487,13.133369 h 1.286934 l 0.372534,5.655739 0.214489,-0.02258 0.688623,-3.646315 h 0.82409 l 0.688623,3.646315 0.2032,0.02258 0.349956,-5.655739 h 1.286934 l -0.722489,8.184453 h -1.636891 l -0.485422,-3.115737 -0.04516,-0.180622 h -0.124178 l -0.04516,0.180622 z"
         style="text-align:center;text-anchor:middle;fill:#ffffff;fill-opacity:1;stroke-width:0.264583"
         id="path4307" />
      <path
         d="m 26.100861,21.317822 h -1.444979 v -8.184453 h 1.444979 v 3.273781 h 2.223914 v -3.273781 h 1.444979 v 8.184453 h -1.444979 v -3.635026 h -2.223914 z"
         style="text-align:center;text-anchor:middle;fill:#ffffff;fill-opacity:1;stroke-width:0.264583"
         id="path4309" />
      <path
         d="m 36.035076,21.317822 h -4.120448 v -1.162757 h 1.354668 v -5.85894 h -1.241779 v -1.162756 h 3.89467 v 1.162756 h -1.207912 v 5.85894 h 1.320801 z"
         style="text-align:center;text-anchor:middle;fill:#ffffff;fill-opacity:1;stroke-width:0.264583"
         id="path4311" />
      <path
         d="M 41.487598,21.317822 H 40.03133 v -6.897519 h -2.190047 v -1.286934 h 5.825073 v 1.286934 h -2.178758 z"
         style="text-align:center;text-anchor:middle;fill:#ffffff;fill-opacity:1;stroke-width:0.264583"
         id="path4313" />
      <path
         d="m 50.202612,21.317822 h -5.294494 v -8.184453 h 5.136449 v 1.241779 h -3.668892 v 2.088446 h 3.48827 v 1.241779 h -3.48827 v 2.381958 h 3.826937 z"
         style="text-align:center;text-anchor:middle;fill:#ffffff;fill-opacity:1;stroke-width:0.264583"
         id="path4315" />
      <path
         d="M 26.902382,30.37152 H 25.37838 l -1.631246,-3.364093 h -1.07809 v 3.341515 h -1.456268 v -8.184453 h 2.66418 q 0.756357,0 1.388535,0.287867 0.632179,0.287867 1.004712,0.835379 0.372534,0.541867 0.372534,1.292579 0,0.812801 -0.4064,1.38289 -0.400756,0.564445 -1.111957,0.829734 z m -4.233338,-6.999118 v 2.393246 h 0.812801 q 1.749779,0 1.749779,-1.196623 0,-0.581378 -0.428978,-0.886179 -0.423333,-0.310444 -1.083734,-0.310444 z"
         style="text-align:center;text-anchor:middle;fill:#ffffff;fill-opacity:1;stroke-width:0.264583"
         id="path4317" />
      <path
         d="m 30.593835,30.47312 q -1.021645,0 -1.625602,-0.366889 -0.598311,-0.372534 -0.863601,-1.123246 -0.265289,-0.756356 -0.265289,-1.964269 V 22.1532 h 1.433691 v 4.809072 q 0,0.841023 0.124178,1.33209 0.129822,0.485423 0.423333,0.711201 0.299156,0.225778 0.818446,0.225778 0.485422,0 0.756356,-0.220134 0.276578,-0.225778 0.389467,-0.7112 0.118533,-0.491068 0.118533,-1.337735 V 22.1532 h 1.44498 v 4.865516 q 0,1.236135 -0.237067,1.981202 -0.237067,0.739423 -0.835379,1.106313 -0.598312,0.366889 -1.682046,0.366889 z"
         style="text-align:center;text-anchor:middle;fill:#ffffff;fill-opacity:1;stroke-width:0.264583"
         id="path4319" />
      <path
         d="m 35.357734,28.091162 q 0.508,0.541867 0.987779,0.829734 0.485422,0.287867 0.965201,0.287867 0.666045,0 1.066801,-0.287867 0.400756,-0.293511 0.400756,-0.863601 0,-0.349956 -0.174978,-0.564445 -0.174978,-0.214489 -0.451556,-0.338667 -0.270934,-0.129822 -0.795868,-0.3048 -0.09031,-0.02822 -0.293511,-0.09596 -0.2032,-0.07338 -0.372534,-0.141111 -0.615245,-0.242711 -1.061157,-0.530578 -0.445911,-0.293512 -0.716845,-0.72249 -0.265289,-0.428978 -0.265289,-1.016001 0,-0.694267 0.366889,-1.213557 0.36689,-0.519289 1.016001,-0.795867 0.649112,-0.282223 1.473202,-0.282223 0.841023,0 1.444979,0.299156 0.609601,0.293511 1.185335,0.908757 l -0.914401,0.824089 q -0.423334,-0.412045 -0.841023,-0.620889 -0.41769,-0.214489 -0.942624,-0.214489 -0.378178,0 -0.699911,0.118533 -0.31609,0.112889 -0.508001,0.349956 -0.191911,0.237067 -0.191911,0.581378 0,0.361245 0.231422,0.609601 0.231423,0.242711 0.575734,0.400756 0.349956,0.1524 0.953912,0.361245 0.77329,0.265289 1.258713,0.502356 0.485422,0.237067 0.824089,0.671689 0.344312,0.434623 0.344312,1.111957 0,0.756356 -0.361245,1.320801 -0.361245,0.564445 -1.016001,0.869246 -0.654756,0.3048 -1.512713,0.3048 -0.925689,0 -1.63689,-0.412045 Q 34.9852,29.620808 34.409466,28.92654 Z"
         style="text-align:center;text-anchor:middle;fill:#ffffff;fill-opacity:1;stroke-width:0.264583"
         id="path4321" />
      <path
         d="M 43.034169,30.348942 H 41.58919 v -8.184453 h 1.444979 v 3.273781 h 2.223913 v -3.273781 h 1.444979 v 8.184453 h -1.444979 v -3.635026 h -2.223913 z"
         style="text-align:center;text-anchor:middle;fill:#ffffff;fill-opacity:1;stroke-width:0.264583"
         id="path4323" />
    </g>
  </g>
</svg>
