<?xml version="1.0" encoding="UTF-8" standalone="no"?>
<svg
   xmlns:dc="http://purl.org/dc/elements/1.1/"
   xmlns:cc="http://creativecommons.org/ns#"
   xmlns:rdf="http://www.w3.org/1999/02/22-rdf-syntax-ns#"
   xmlns:svg="http://www.w3.org/2000/svg"
   xmlns="http://www.w3.org/2000/svg"
   xmlns:sodipodi="http://sodipodi.sourceforge.net/DTD/sodipodi-0.dtd"
   xmlns:inkscape="http://www.inkscape.org/namespaces/inkscape"
   width="300"
   height="150"
   viewBox="0 0 79.374997 39.687499"
   version="1.1"
   id="svg8"
   inkscape:version="1.0.2 (e86c870879, 2021-01-15)"
   sodipodi:docname="gamma.svg">
  <defs
     id="defs2" />
  <sodipodi:namedview
     id="base"
     pagecolor="#ffffff"
     bordercolor="#666666"
     borderopacity="1.0"
     inkscape:pageopacity="0.0"
     inkscape:pageshadow="2"
     inkscape:zoom="0.9899495"
     inkscape:cx="212.02444"
     inkscape:cy="243.25525"
     inkscape:document-units="px"
     inkscape:current-layer="layer1"
     inkscape:document-rotation="0"
     showgrid="true"
     units="px"
     inkscape:window-width="1343"
     inkscape:window-height="908"
     inkscape:window-x="123"
     inkscape:window-y="26"
     inkscape:window-maximized="0">
    <inkscape:grid
       type="xygrid"
       id="grid1402"
       spacingx="2.6458332"
       spacingy="2.6458332" />
  </sodipodi:namedview>
  <metadata
     id="metadata5">
    <rdf:RDF>
      <cc:Work
         rdf:about="">
        <dc:format>image/svg+xml</dc:format>
        <dc:type
           rdf:resource="http://purl.org/dc/dcmitype/StillImage" />
        <dc:title></dc:title>
      </cc:Work>
    </rdf:RDF>
  </metadata>
  <g
     inkscape:label="Layer 1"
     inkscape:groupmode="layer"
     id="layer1">
    <rect
       style="opacity:0.993;fill:#000000;stroke-width:1.87089;stroke-linecap:round;stroke-linejoin:round;stroke-dashoffset:3.5007;paint-order:stroke markers fill"
       id="rect831"
       width="79.375"
       height="39.6875"
       x="-2.9536743e-06"
       y="0"
       ry="0" />
    <g
       id="g987"
       transform="matrix(0.87115893,0,0,0.87115893,-15.04629,-67.194256)">
      <path
         d="m 96.350474,102.4409 c 0,0 -0.11135,-0.68323 -0.17647,-0.67706 L 83.776544,102.96 c -0.986464,0.0952 -1.752609,0.88196 -1.821827,1.87048 l -0.34057,4.88162 -9.591226,0.68425 -0.652388,-4.42419 c -0.145271,-0.98406 -1.004626,-1.72588 -1.999318,-1.72588 H 56.286417 c -0.994346,0 -1.853693,0.74182 -1.998972,1.72588 l -0.652733,4.42419 -9.591222,-0.68425 -0.34057,-4.88162 c -0.0692,-0.98886 -0.835359,-1.77557 -1.821827,-1.87082 l -12.403628,-1.19582 c -0.06409,-0.006 -0.111009,0.67775 -0.175101,0.67775 l -0.01662,2.68288 10.50471,1.69402 0.344021,4.92513 c 0.06955,0.99709 0.874082,1.80332 1.871851,1.87493 l 13.209179,0.94227 c 0.05003,0.003 0.09938,0.005 0.148723,0.005 0.992629,0 1.850607,-0.74216 1.995886,-1.72623 l 0.671236,-4.55234 h 9.595676 l 0.671236,4.55234 c 0.14493,0.98372 1.003939,1.72589 1.997945,1.72589 0.04866,0 0.09733,-0.002 0.14493,-0.005 l 13.210888,-0.94227 c 0.997432,-0.0716 1.802297,-0.87784 1.871855,-1.87493 l 0.343681,-4.92513 10.500253,-1.70156 z"
         fill="#ffffff"
         id="path917"
         style="fill:#000000;stroke-width:0.342642" />
      <path
         d="m 29.302185,82.210981 v 16.280276 2.067833 1.88179 c 0.03707,3.4e-4 0.07402,0.002 0.110669,0.005 l 12.402256,1.19582 c 0.649652,0.0627 1.158815,0.58558 1.204045,1.2366 l 0.382374,5.47472 10.818569,0.77197 0.745244,-5.05293 c 0.0966,-0.65513 0.658558,-1.14065 1.321229,-1.14065 h 13.084798 c 0.662325,0 1.224257,0.48552 1.320884,1.14065 l 0.745243,5.05293 10.818914,-0.77197 0.382033,-5.47472 c 0.04555,-0.65102 0.554398,-1.17355 1.204046,-1.2366 l 12.397455,-1.19582 c 0.0366,-0.003 0.0733,-0.005 0.11033,-0.005 v -1.61418 l 0.005,-0.002 V 82.210981 c 1.74642,-2.198549 3.40012,-4.623677 4.667126,-6.664036 -1.936266,-3.296213 -4.308716,-6.241904 -6.844606,-8.971047 -2.35189,1.183829 -4.63629,2.524929 -6.793904,3.952029 -1.079659,-1.073153 -2.295696,-1.951003 -3.490145,-2.868594 -1.173546,-0.942609 -2.496143,-1.633716 -3.750558,-2.438926 0.373468,-2.781221 0.558165,-5.51927 0.632517,-8.376902 -3.236483,-1.628918 -6.687913,-2.708923 -10.179085,-3.484665 -1.393869,2.34264 -2.668495,4.87956 -3.778654,7.3596 -1.31643,-0.219973 -2.639027,-0.301536 -3.963337,-0.317303 v -0.0021 c -0.0094,0 -0.0179,0.0021 -0.02557,0.0021 -0.0081,0 -0.01662,-0.0021 -0.02514,-0.0021 v 0.0021 c -1.326709,0.01577 -2.648275,0.09733 -3.965046,0.317303 -1.109477,-2.48004 -2.383417,-5.01696 -3.77934,-7.3596 -3.489463,0.775742 -6.941235,1.855747 -10.177486,3.484665 0.07402,2.857632 0.258708,5.595681 0.633203,8.376902 -1.25681,0.80521 -2.577694,1.496317 -3.751585,2.438926 -1.192736,0.917591 -2.410827,1.795441 -3.490832,2.868594 -2.157615,-1.4271 -4.44132,-2.7682 -6.793897,-3.952029 -2.535894,2.729143 -4.906974,5.674834 -6.843926,8.971047 1.522238,2.389477 3.155034,4.79112 4.667122,6.664036 z"
         fill="#478cbf"
         id="path919"
         style="fill:#333333;stroke-width:0.342642" />
      <path
         d="m 85.22414,106.19203 -0.384121,5.50386 c -0.04624,0.66335 -0.573928,1.19136 -1.23728,1.23899 l -13.210552,0.9426 c -0.03239,0.002 -0.06443,0.003 -0.09626,0.003 -0.6565,0 -1.222889,-0.48175 -1.319853,-1.14099 L 68.21849,107.60192 H 57.439322 l -0.75758,5.13757 c -0.101762,0.69145 -0.719889,1.18862 -1.416139,1.13757 l -13.210547,-0.94258 c -0.663353,-0.0476 -1.191023,-0.57564 -1.23728,-1.23899 l -0.384121,-5.50386 -11.151958,-1.07521 c 0.0051,1.19856 0.02045,2.51157 0.02045,2.773 0,11.77797 14.940891,17.43909 33.503846,17.50419 h 0.02259 0.02301 c 18.562955,-0.0651 33.498701,-5.72622 33.498701,-17.50419 0,-0.26625 0.0162,-1.57375 0.0217,-2.773 z"
         fill="#478cbf"
         id="path921"
         style="fill:#333333;stroke-width:0.342642" />
      <path
         d="m 52.721864,90.422972 c 0,4.129519 -3.345897,7.474726 -7.474044,7.474726 -4.126088,0 -7.473012,-3.345207 -7.473012,-7.474726 0,-4.126773 3.346924,-7.470271 7.473012,-7.470271 4.128147,0 7.474044,3.343498 7.474044,7.470271"
         fill="#ffffff"
         id="path923"
         style="fill:#000000;stroke-width:0.342642" />
      <path
         d="m 50.923467,90.866297 c 0,2.739076 -2.219976,4.959052 -4.961111,4.959052 -2.739762,0 -4.961106,-2.219976 -4.961106,-4.959052 0,-2.739076 2.221344,-4.96111 4.961106,-4.96111 2.741135,0 4.961111,2.222034 4.961111,4.96111"
         fill="#414042"
         id="path925"
         style="fill:#333333;stroke-width:0.342642" />
      <path
         d="m 62.828271,98.577708 c -1.328763,0 -2.405687,-0.97927 -2.405687,-2.186396 v -6.880587 c 0,-1.206098 1.076924,-2.186395 2.405687,-2.186395 1.328763,0 2.408086,0.980297 2.408086,2.186395 v 6.880587 c 0,1.207126 -1.079323,2.186396 -2.408086,2.186396"
         fill="#ffffff"
         id="path927"
         style="fill:#000000;stroke-width:0.342642" />
      <path
         d="m 72.935926,90.422972 c 0,4.129519 3.345898,7.474726 7.474726,7.474726 4.125752,0 7.472331,-3.345207 7.472331,-7.474726 0,-4.126773 -3.346579,-7.470271 -7.472331,-7.470271 -4.128828,0 -7.474726,3.343498 -7.474726,7.470271"
         fill="#ffffff"
         id="path929"
         style="fill:#000000;stroke-width:0.342642" />
      <path
         d="m 74.73478,90.866297 c 0,2.739076 2.21929,4.959052 4.958366,4.959052 2.741821,0 4.96111,-2.219976 4.96111,-4.959052 0,-2.739076 -2.219289,-4.96111 -4.96111,-4.96111 -2.739076,0 -4.958366,2.222034 -4.958366,4.96111"
         fill="#414042"
         id="path931"
         style="fill:#333333;stroke-width:0.342642" />
    </g>
  </g>
</svg>
