<?xml version="1.0" encoding="UTF-8" standalone="no"?>
<svg
   xmlns:dc="http://purl.org/dc/elements/1.1/"
   xmlns:cc="http://creativecommons.org/ns#"
   xmlns:rdf="http://www.w3.org/1999/02/22-rdf-syntax-ns#"
   xmlns:svg="http://www.w3.org/2000/svg"
   xmlns="http://www.w3.org/2000/svg"
   xmlns:sodipodi="http://sodipodi.sourceforge.net/DTD/sodipodi-0.dtd"
   xmlns:inkscape="http://www.inkscape.org/namespaces/inkscape"
   width="675"
   height="440"
   viewBox="0 0 178.59374 116.41666"
   version="1.1"
   id="svg8"
   inkscape:version="1.0.2 (e86c870879, 2021-01-15)"
   sodipodi:docname="digits.svg">
  <defs
     id="defs2" />
  <sodipodi:namedview
     id="base"
     pagecolor="#ffffff"
     bordercolor="#666666"
     borderopacity="1.0"
     inkscape:pageopacity="0.0"
     inkscape:pageshadow="2"
     inkscape:zoom="0.70000001"
     inkscape:cx="341.10767"
     inkscape:cy="186.89887"
     inkscape:document-units="px"
     inkscape:current-layer="layer1"
     inkscape:document-rotation="0"
     showgrid="true"
     units="px"
     inkscape:window-width="1343"
     inkscape:window-height="908"
     inkscape:window-x="123"
     inkscape:window-y="26"
     inkscape:window-maximized="0">
    <inkscape:grid
       type="xygrid"
       id="grid1402"
       originx="0"
       originy="0" />
  </sodipodi:namedview>
  <metadata
     id="metadata5">
    <rdf:RDF>
      <cc:Work
         rdf:about="">
        <dc:format>image/svg+xml</dc:format>
        <dc:type
           rdf:resource="http://purl.org/dc/dcmitype/StillImage" />
        <dc:title></dc:title>
      </cc:Work>
    </rdf:RDF>
  </metadata>
  <g
     inkscape:label="Layer 1"
     inkscape:groupmode="layer"
     id="layer1">
    <rect
       style="fill:#a9a9a9;fill-opacity:1;stroke:none;stroke-width:6.44845;stroke-linecap:round;stroke-linejoin:round;stroke-dashoffset:3.5007;paint-order:stroke markers fill"
       id="rect845"
       width="35.71875"
       height="58.208332"
       x="2.6458333"
       y="-68.791664"
       ry="0.58208334" />
    <path
       style="fill:#000000;fill-opacity:1;stroke:none;stroke-width:0.264583px;stroke-linecap:butt;stroke-linejoin:miter;stroke-opacity:1"
       d="m 9.2604162,-60.854164 -2.6458332,2.645833 v 14.552083 l 2.6458332,2.645833 3.9687498,-3.96875 v -11.906249 z"
       id="path831" />
    <path
       style="fill:#000000;fill-opacity:1;stroke:none;stroke-width:0.264583px;stroke-linecap:butt;stroke-linejoin:miter;stroke-opacity:1"
       d="m 30.427082,-62.177081 -2.645833,-2.645833 H 13.229166 l -2.645833,2.645833 3.96875,3.96875 h 11.906249 z"
       id="path833" />
    <path
       style="fill:#000000;fill-opacity:1;stroke:none;stroke-width:0.264583px;stroke-linecap:butt;stroke-linejoin:miter;stroke-opacity:1"
       d="m 31.749999,-41.010415 2.645833,-2.645833 v -14.552083 l -2.645833,-2.645833 -3.96875,3.96875 v 11.906249 z"
       id="path835" />
    <path
       style="fill:#000000;fill-opacity:1;stroke:none;stroke-width:0.264583px;stroke-linecap:butt;stroke-linejoin:miter;stroke-opacity:1"
       d="m 31.749999,-18.520832 2.645833,-2.645834 v -14.552082 l -2.645833,-2.645833 -3.96875,3.96875 v 11.906249 z"
       id="path837" />
    <path
       style="fill:#000000;fill-opacity:1;stroke:none;stroke-width:0.264583px;stroke-linecap:butt;stroke-linejoin:miter;stroke-opacity:1"
       d="m 10.583333,-17.197916 2.645833,2.645833 h 14.552083 l 2.645833,-2.645833 -3.96875,-3.96875 H 14.552083 Z"
       id="path839" />
    <path
       style="fill:#000000;fill-opacity:1;stroke:none;stroke-width:0.264583px;stroke-linecap:butt;stroke-linejoin:miter;stroke-opacity:1"
       d="m 9.2604162,-38.364581 -2.645833,2.645833 v 14.552082 l 2.645833,2.645833 3.9687498,-3.968749 v -11.906249 z"
       id="path841" />
    <path
       style="fill:#000000;fill-opacity:1;stroke:none;stroke-width:0.264583px;stroke-linecap:butt;stroke-linejoin:miter;stroke-opacity:1"
       d="m 10.583333,-39.687498 3.96875,-3.96875 h 11.906249 l 3.96875,3.96875 -3.96875,3.96875 H 14.552083 Z"
       id="path843"
       sodipodi:nodetypes="ccccccc" />
    <rect
       style="fill:#a9a9a9;fill-opacity:1;stroke:none;stroke-width:6.44845;stroke-linecap:round;stroke-linejoin:round;stroke-dashoffset:3.5007;paint-order:stroke markers fill"
       id="rect856"
       width="35.71875"
       height="58.208332"
       x="38.364582"
       y="-68.791664"
       ry="0.58208334" />
    <path
       style="fill:#000000;fill-opacity:1;stroke:none;stroke-width:0.264583px;stroke-linecap:butt;stroke-linejoin:miter;stroke-opacity:1"
       d="m 44.979165,-60.854164 -2.645833,2.645833 v 14.552083 l 2.645833,2.645833 3.96875,-3.96875 v -11.906249 z"
       id="path858" />
    <path
       style="fill:#000000;fill-opacity:1;stroke:none;stroke-width:0.264583px;stroke-linecap:butt;stroke-linejoin:miter;stroke-opacity:1"
       d="m 66.145831,-62.177081 -2.645833,-2.645833 H 48.947915 l -2.645833,2.645833 3.96875,3.96875 h 11.906249 z"
       id="path860" />
    <path
       style="fill:#000000;fill-opacity:1;stroke:none;stroke-width:0.264583px;stroke-linecap:butt;stroke-linejoin:miter;stroke-opacity:1"
       d="m 67.468748,-41.010415 2.645833,-2.645833 v -14.552083 l -2.645833,-2.645833 -3.96875,3.96875 v 11.906249 z"
       id="path862" />
    <path
       style="fill:#000000;fill-opacity:1;stroke:none;stroke-width:0.264583px;stroke-linecap:butt;stroke-linejoin:miter;stroke-opacity:1"
       d="m 67.468748,-18.520832 2.645833,-2.645834 v -14.552082 l -2.645833,-2.645833 -3.96875,3.96875 v 11.906249 z"
       id="path864" />
    <path
       style="fill:#000000;fill-opacity:1;stroke:none;stroke-width:0.264583px;stroke-linecap:butt;stroke-linejoin:miter;stroke-opacity:1"
       d="m 46.302082,-17.197916 2.645833,2.645833 h 14.552083 l 2.645833,-2.645833 -3.96875,-3.96875 H 50.270832 Z"
       id="path866" />
    <path
       style="fill:#000000;fill-opacity:1;stroke:none;stroke-width:0.264583px;stroke-linecap:butt;stroke-linejoin:miter;stroke-opacity:1"
       d="m 44.979165,-38.364581 -2.645833,2.645833 v 14.552082 l 2.645833,2.645833 3.96875,-3.968749 v -11.906249 z"
       id="path868" />
    <path
       style="fill:#000000;fill-opacity:1;stroke:none;stroke-width:0.264583px;stroke-linecap:butt;stroke-linejoin:miter;stroke-opacity:1"
       d="m 46.302082,-39.687498 3.96875,-3.96875 h 11.906249 l 3.96875,3.96875 -3.96875,3.96875 H 50.270832 Z"
       id="path870"
       sodipodi:nodetypes="ccccccc" />
    <rect
       style="fill:#a9a9a9;fill-opacity:1;stroke:none;stroke-width:6.44845;stroke-linecap:round;stroke-linejoin:round;stroke-dashoffset:3.5007;paint-order:stroke markers fill"
       id="rect874"
       width="35.71875"
       height="58.208332"
       x="80.697922"
       y="-68.791664"
       ry="0.58208334" />
    <path
       style="fill:#000000;fill-opacity:1;stroke:none;stroke-width:0.264583px;stroke-linecap:butt;stroke-linejoin:miter;stroke-opacity:1"
       d="m 87.312497,-60.854164 -2.645833,2.645833 v 14.552083 l 2.645833,2.645833 3.96875,-3.96875 v -11.906249 z"
       id="path876" />
    <path
       style="fill:#000000;fill-opacity:1;stroke:none;stroke-width:0.264583px;stroke-linecap:butt;stroke-linejoin:miter;stroke-opacity:1"
       d="m 108.47916,-62.177081 -2.64583,-2.645833 H 91.281247 l -2.645833,2.645833 3.96875,3.96875 h 11.906246 z"
       id="path878" />
    <path
       style="fill:#000000;fill-opacity:1;stroke:none;stroke-width:0.264583px;stroke-linecap:butt;stroke-linejoin:miter;stroke-opacity:1"
       d="m 109.80208,-41.010415 2.64583,-2.645833 v -14.552083 l -2.64583,-2.645833 -3.96875,3.96875 v 11.906249 z"
       id="path880" />
    <path
       style="fill:#000000;fill-opacity:1;stroke:none;stroke-width:0.264583px;stroke-linecap:butt;stroke-linejoin:miter;stroke-opacity:1"
       d="m 109.80208,-18.520832 2.64583,-2.645834 v -14.552082 l -2.64583,-2.645833 -3.96875,3.96875 v 11.906249 z"
       id="path882" />
    <path
       style="fill:#000000;fill-opacity:1;stroke:none;stroke-width:0.264583px;stroke-linecap:butt;stroke-linejoin:miter;stroke-opacity:1"
       d="m 88.635414,-17.197916 2.645833,2.645833 h 14.552083 l 2.64583,-2.645833 -3.96875,-3.96875 H 92.604164 Z"
       id="path884" />
    <path
       style="fill:#000000;fill-opacity:1;stroke:none;stroke-width:0.264583px;stroke-linecap:butt;stroke-linejoin:miter;stroke-opacity:1"
       d="m 87.312497,-38.364581 -2.645833,2.645833 v 14.552082 l 2.645833,2.645833 3.96875,-3.968749 v -11.906249 z"
       id="path886" />
    <path
       style="fill:#000000;fill-opacity:1;stroke:none;stroke-width:0.264583px;stroke-linecap:butt;stroke-linejoin:miter;stroke-opacity:1"
       d="m 88.635414,-39.687498 3.96875,-3.96875 h 11.906246 l 3.96875,3.96875 -3.96875,3.96875 H 92.604164 Z"
       id="path888"
       sodipodi:nodetypes="ccccccc" />
    <rect
       style="fill:#a9a9a9;fill-opacity:1;stroke:none;stroke-width:6.44845;stroke-linecap:round;stroke-linejoin:round;stroke-dashoffset:3.5007;paint-order:stroke markers fill"
       id="rect892"
       width="35.71875"
       height="58.208332"
       x="116.41667"
       y="-68.791664"
       ry="0.58208334" />
    <path
       style="fill:#000000;fill-opacity:1;stroke:none;stroke-width:0.264583px;stroke-linecap:butt;stroke-linejoin:miter;stroke-opacity:1"
       d="m 123.03125,-60.854164 -2.64584,2.645833 v 14.552083 l 2.64584,2.645833 3.96875,-3.96875 v -11.906249 z"
       id="path894" />
    <path
       style="fill:#000000;fill-opacity:1;stroke:none;stroke-width:0.264583px;stroke-linecap:butt;stroke-linejoin:miter;stroke-opacity:1"
       d="m 144.19791,-62.177081 -2.64583,-2.645833 H 127 l -2.64584,2.645833 3.96875,3.96875 h 11.90625 z"
       id="path896" />
    <path
       style="fill:#000000;fill-opacity:1;stroke:none;stroke-width:0.264583px;stroke-linecap:butt;stroke-linejoin:miter;stroke-opacity:1"
       d="m 145.52083,-41.010415 2.64583,-2.645833 v -14.552083 l -2.64583,-2.645833 -3.96875,3.96875 v 11.906249 z"
       id="path898" />
    <path
       style="fill:#000000;fill-opacity:1;stroke:none;stroke-width:0.264583px;stroke-linecap:butt;stroke-linejoin:miter;stroke-opacity:1"
       d="m 145.52083,-18.520832 2.64583,-2.645834 v -14.552082 l -2.64583,-2.645833 -3.96875,3.96875 v 11.906249 z"
       id="path900" />
    <path
       style="fill:#000000;fill-opacity:1;stroke:none;stroke-width:0.264583px;stroke-linecap:butt;stroke-linejoin:miter;stroke-opacity:1"
       d="M 124.35416,-17.197916 127,-14.552083 h 14.55208 l 2.64583,-2.645833 -3.96875,-3.96875 h -11.90625 z"
       id="path902" />
    <path
       style="fill:#000000;fill-opacity:1;stroke:none;stroke-width:0.264583px;stroke-linecap:butt;stroke-linejoin:miter;stroke-opacity:1"
       d="m 123.03125,-38.364581 -2.64584,2.645833 v 14.552082 l 2.64584,2.645833 L 127,-22.489582 v -11.906249 z"
       id="path904" />
    <path
       style="fill:#000000;fill-opacity:1;stroke:none;stroke-width:0.264583px;stroke-linecap:butt;stroke-linejoin:miter;stroke-opacity:1"
       d="m 124.35416,-39.687498 3.96875,-3.96875 h 11.90625 l 3.96875,3.96875 -3.96875,3.96875 h -11.90625 z"
       id="path906"
       sodipodi:nodetypes="ccccccc" />
    <rect
       style="fill:#000000;fill-opacity:1;stroke:none;stroke-width:7.9375;stroke-linecap:round;stroke-linejoin:round;stroke-dashoffset:3.5007;stroke-opacity:1;paint-order:stroke markers fill"
       id="rect910"
       width="6.614583"
       height="6.614583"
       x="74.083328"
       y="-35.71875"
       ry="0" />
    <rect
       style="fill:#000000;fill-opacity:1;stroke:none;stroke-width:7.9375;stroke-linecap:round;stroke-linejoin:round;stroke-dashoffset:3.5007;stroke-opacity:1;paint-order:stroke markers fill"
       id="rect912"
       width="6.614583"
       height="6.614583"
       x="74.083328"
       y="-50.270832"
       ry="0" />
    <path
       style="fill:#ffffff;fill-opacity:0.7706821;stroke:none;stroke-width:0.264583px;stroke-linecap:butt;stroke-linejoin:miter;stroke-opacity:1"
       d="M 6.6145829,7.9375002 3.9687497,10.583333 v 14.552083 l 2.6458332,2.645833 3.9687501,-3.96875 V 11.90625 Z"
       id="path960" />
    <path
       style="fill:#ffffff;fill-opacity:0.7706821;stroke:none;stroke-width:0.264583px;stroke-linecap:butt;stroke-linejoin:miter;stroke-opacity:1"
       d="M 27.781249,6.6145835 25.135416,3.9687505 H 10.583333 L 7.9374997,6.6145835 11.90625,10.583333 h 11.906249 z"
       id="path962" />
    <path
       style="fill:#ffffff;fill-opacity:0.7706821;stroke:none;stroke-width:0.264583px;stroke-linecap:butt;stroke-linejoin:miter;stroke-opacity:1"
       d="m 29.104166,27.781249 2.645833,-2.645833 V 10.583333 L 29.104166,7.9375004 25.135416,11.90625 v 11.906249 z"
       id="path964" />
    <path
       style="fill:#ffffff;fill-opacity:0.7706821;stroke:none;stroke-width:0.264583px;stroke-linecap:butt;stroke-linejoin:miter;stroke-opacity:1"
       d="m 29.104166,50.270832 2.645833,-2.645834 V 33.072916 l -2.645833,-2.645833 -3.96875,3.96875 v 11.906249 z"
       id="path966" />
    <path
       style="fill:#ffffff;fill-opacity:0.7706821;stroke:none;stroke-width:0.264583px;stroke-linecap:butt;stroke-linejoin:miter;stroke-opacity:1"
       d="m 7.9374997,51.593748 2.6458333,2.645833 h 14.552083 l 2.645833,-2.645833 -3.96875,-3.96875 H 11.90625 Z"
       id="path968" />
    <path
       style="fill:#ffffff;fill-opacity:0.7706821;stroke:none;stroke-width:0.264583px;stroke-linecap:butt;stroke-linejoin:miter;stroke-opacity:1"
       d="m 6.6145829,30.427083 -2.645833,2.645833 v 14.552082 l 2.645833,2.645833 3.9687501,-3.968749 V 34.395833 Z"
       id="path970" />
    <path
       style="fill:#ffffff;fill-opacity:0.7706821;stroke:none;stroke-width:0.264583px;stroke-linecap:butt;stroke-linejoin:miter;stroke-opacity:1"
       d="m 64.822913,27.781249 2.645833,-2.645833 V 10.583333 L 64.822913,7.9375004 60.854163,11.90625 v 11.906249 z"
       id="path982" />
    <path
       style="fill:#ffffff;fill-opacity:0.7706821;stroke:none;stroke-width:0.264583px;stroke-linecap:butt;stroke-linejoin:miter;stroke-opacity:1"
       d="m 64.822913,50.270832 2.645833,-2.645834 V 33.072916 l -2.645833,-2.645833 -3.96875,3.96875 v 11.906249 z"
       id="path984" />
    <path
       style="fill:#ffffff;fill-opacity:0.7706821;stroke:none;stroke-width:0.264583px;stroke-linecap:butt;stroke-linejoin:miter;stroke-opacity:1"
       d="M 99.218746,6.6145835 96.572913,3.9687505 H 82.02083 l -2.645833,2.645833 3.96875,3.9687495 h 11.906249 z"
       id="path998" />
    <path
       style="fill:#ffffff;fill-opacity:0.7706821;stroke:none;stroke-width:0.264583px;stroke-linecap:butt;stroke-linejoin:miter;stroke-opacity:1"
       d="m 100.54166,27.781249 2.64584,-2.645833 V 10.583333 L 100.54166,7.9375004 96.572913,11.90625 v 11.906249 z"
       id="path1000" />
    <path
       style="fill:#ffffff;fill-opacity:0.7706821;stroke:none;stroke-width:0.264583px;stroke-linecap:butt;stroke-linejoin:miter;stroke-opacity:1"
       d="m 79.374997,51.593748 2.645833,2.645833 h 14.552083 l 2.645833,-2.645833 -3.96875,-3.96875 H 83.343747 Z"
       id="path1004" />
    <path
       style="fill:#ffffff;fill-opacity:0.7706821;stroke:none;stroke-width:0.264583px;stroke-linecap:butt;stroke-linejoin:miter;stroke-opacity:1"
       d="m 78.05208,30.427083 -2.645833,2.645833 v 14.552082 l 2.645833,2.645833 3.96875,-3.968749 V 34.395833 Z"
       id="path1006" />
    <path
       style="fill:#ffffff;fill-opacity:0.7706821;stroke:none;stroke-width:0.264583px;stroke-linecap:butt;stroke-linejoin:miter;stroke-opacity:1"
       d="m 79.374997,29.104166 3.96875,-3.96875 h 11.906249 l 3.96875,3.96875 -3.96875,3.96875 H 83.343747 Z"
       id="path1008"
       sodipodi:nodetypes="ccccccc" />
    <path
       style="fill:#ffffff;fill-opacity:0.7706821;stroke:none;stroke-width:0.264583px;stroke-linecap:butt;stroke-linejoin:miter;stroke-opacity:1"
       d="m 134.93749,6.6145835 -2.64583,-2.645833 h -14.55208 l -2.64584,2.645833 3.96875,3.9687495 h 11.90625 z"
       id="path1016" />
    <path
       style="fill:#ffffff;fill-opacity:0.7706821;stroke:none;stroke-width:0.264583px;stroke-linecap:butt;stroke-linejoin:miter;stroke-opacity:1"
       d="m 136.26041,27.781249 2.64583,-2.645833 V 10.583333 l -2.64583,-2.6458326 -3.96875,3.9687496 v 11.906249 z"
       id="path1018" />
    <path
       style="fill:#ffffff;fill-opacity:0.7706821;stroke:none;stroke-width:0.264583px;stroke-linecap:butt;stroke-linejoin:miter;stroke-opacity:1"
       d="m 136.26041,50.270832 2.64583,-2.645834 V 33.072916 l -2.64583,-2.645833 -3.96875,3.96875 v 11.906249 z"
       id="path1020" />
    <path
       style="fill:#ffffff;fill-opacity:0.7706821;stroke:none;stroke-width:0.264583px;stroke-linecap:butt;stroke-linejoin:miter;stroke-opacity:1"
       d="m 115.09374,51.593748 2.64584,2.645833 h 14.55208 l 2.64583,-2.645833 -3.96875,-3.96875 h -11.90625 z"
       id="path1022" />
    <path
       style="fill:#ffffff;fill-opacity:0.7706821;stroke:none;stroke-width:0.264583px;stroke-linecap:butt;stroke-linejoin:miter;stroke-opacity:1"
       d="m 115.09374,29.104166 3.96875,-3.96875 h 11.90625 l 3.96875,3.96875 -3.96875,3.96875 h -11.90625 z"
       id="path1026"
       sodipodi:nodetypes="ccccccc" />
    <path
       style="fill:#ffffff;fill-opacity:0.7706821;stroke:none;stroke-width:0.264583px;stroke-linecap:butt;stroke-linejoin:miter;stroke-opacity:1"
       d="m 6.6145829,66.145832 -2.6458332,2.645833 v 14.552083 l 2.6458332,2.645833 3.9687501,-3.96875 V 70.114582 Z"
       id="path1032" />
    <path
       style="fill:#ffffff;fill-opacity:0.7706821;stroke:none;stroke-width:0.264583px;stroke-linecap:butt;stroke-linejoin:miter;stroke-opacity:1"
       d="M 27.781249,64.822915 25.135416,62.177082 H 10.583333 l -2.6458333,2.645833 3.9687503,3.96875 h 11.906249 z"
       id="path1034" />
    <path
       style="fill:#ffffff;fill-opacity:0.7706821;stroke:none;stroke-width:0.264583px;stroke-linecap:butt;stroke-linejoin:miter;stroke-opacity:1"
       d="m 29.104166,108.47916 2.645833,-2.64583 V 91.281248 l -2.645833,-2.645833 -3.96875,3.96875 v 11.906245 z"
       id="path1038" />
    <path
       style="fill:#ffffff;fill-opacity:0.7706821;stroke:none;stroke-width:0.264583px;stroke-linecap:butt;stroke-linejoin:miter;stroke-opacity:1"
       d="m 7.9374997,109.80208 2.6458333,2.64583 h 14.552083 l 2.645833,-2.64583 -3.96875,-3.96875 H 11.90625 Z"
       id="path1040" />
    <path
       style="fill:#ffffff;fill-opacity:0.7706821;stroke:none;stroke-width:0.264583px;stroke-linecap:butt;stroke-linejoin:miter;stroke-opacity:1"
       d="m 7.9374997,87.312498 3.9687503,-3.96875 h 11.906249 l 3.96875,3.96875 -3.96875,3.96875 H 11.90625 Z"
       id="path1044"
       sodipodi:nodetypes="ccccccc" />
    <path
       style="fill:#ffffff;fill-opacity:0.7706821;stroke:none;stroke-width:0.264583px;stroke-linecap:butt;stroke-linejoin:miter;stroke-opacity:1"
       d="m 42.33333,66.145832 -2.645833,2.645833 v 14.552083 l 2.645833,2.645833 3.96875,-3.96875 V 70.114582 Z"
       id="path1050" />
    <path
       style="fill:#ffffff;fill-opacity:0.7706821;stroke:none;stroke-width:0.264583px;stroke-linecap:butt;stroke-linejoin:miter;stroke-opacity:1"
       d="M 63.499996,64.822915 60.854163,62.177082 H 46.30208 l -2.645833,2.645833 3.96875,3.96875 h 11.906249 z"
       id="path1052" />
    <path
       style="fill:#ffffff;fill-opacity:0.7706821;stroke:none;stroke-width:0.264583px;stroke-linecap:butt;stroke-linejoin:miter;stroke-opacity:1"
       d="m 64.822913,108.47916 2.645833,-2.64583 V 91.281248 l -2.645833,-2.645833 -3.96875,3.96875 v 11.906245 z"
       id="path1056" />
    <path
       style="fill:#ffffff;fill-opacity:0.7706821;stroke:none;stroke-width:0.264583px;stroke-linecap:butt;stroke-linejoin:miter;stroke-opacity:1"
       d="m 43.656247,109.80208 2.645833,2.64583 h 14.552083 l 2.645833,-2.64583 -3.96875,-3.96875 H 47.624997 Z"
       id="path1058" />
    <path
       style="fill:#ffffff;fill-opacity:0.7706821;stroke:none;stroke-width:0.264583px;stroke-linecap:butt;stroke-linejoin:miter;stroke-opacity:1"
       d="m 42.33333,88.635415 -2.645833,2.645833 v 14.552082 l 2.645833,2.64583 3.96875,-3.96875 V 92.604165 Z"
       id="path1060" />
    <path
       style="fill:#ffffff;fill-opacity:0.7706821;stroke:none;stroke-width:0.264583px;stroke-linecap:butt;stroke-linejoin:miter;stroke-opacity:1"
       d="m 43.656247,87.312498 3.96875,-3.96875 h 11.906249 l 3.96875,3.96875 -3.96875,3.96875 H 47.624997 Z"
       id="path1062"
       sodipodi:nodetypes="ccccccc" />
    <path
       style="fill:#ffffff;fill-opacity:0.7706821;stroke:none;stroke-width:0.264583px;stroke-linecap:butt;stroke-linejoin:miter;stroke-opacity:1"
       d="M 99.218746,64.822915 96.572913,62.177082 H 82.02083 l -2.645833,2.645833 3.96875,3.96875 h 11.906249 z"
       id="path1070" />
    <path
       style="fill:#ffffff;fill-opacity:0.7706821;stroke:none;stroke-width:0.264583px;stroke-linecap:butt;stroke-linejoin:miter;stroke-opacity:1"
       d="m 100.54166,85.989581 2.64584,-2.645833 V 68.791665 l -2.64584,-2.645833 -3.968747,3.96875 v 11.906249 z"
       id="path1072" />
    <path
       style="fill:#ffffff;fill-opacity:0.7706821;stroke:none;stroke-width:0.264583px;stroke-linecap:butt;stroke-linejoin:miter;stroke-opacity:1"
       d="m 100.54166,108.47916 2.64584,-2.64583 V 91.281248 l -2.64584,-2.645833 -3.968747,3.96875 v 11.906245 z"
       id="path1074" />
    <path
       style="fill:#ffffff;fill-opacity:0.7706821;stroke:none;stroke-width:0.264583px;stroke-linecap:butt;stroke-linejoin:miter;stroke-opacity:1"
       d="m 113.77083,66.145832 -2.64584,2.645833 v 14.552083 l 2.64584,2.645833 3.96875,-3.96875 V 70.114582 Z"
       id="path1086" />
    <path
       style="fill:#ffffff;fill-opacity:0.7706821;stroke:none;stroke-width:0.264583px;stroke-linecap:butt;stroke-linejoin:miter;stroke-opacity:1"
       d="m 134.93749,64.822915 -2.64583,-2.645833 h -14.55208 l -2.64584,2.645833 3.96875,3.96875 h 11.90625 z"
       id="path1088" />
    <path
       style="fill:#ffffff;fill-opacity:0.7706821;stroke:none;stroke-width:0.264583px;stroke-linecap:butt;stroke-linejoin:miter;stroke-opacity:1"
       d="m 136.26041,85.989581 2.64583,-2.645833 V 68.791665 l -2.64583,-2.645833 -3.96875,3.96875 v 11.906249 z"
       id="path1090" />
    <path
       style="fill:#ffffff;fill-opacity:0.7706821;stroke:none;stroke-width:0.264583px;stroke-linecap:butt;stroke-linejoin:miter;stroke-opacity:1"
       d="m 136.26041,108.47916 2.64583,-2.64583 V 91.281248 l -2.64583,-2.645833 -3.96875,3.96875 v 11.906245 z"
       id="path1092" />
    <path
       style="fill:#ffffff;fill-opacity:0.7706821;stroke:none;stroke-width:0.264583px;stroke-linecap:butt;stroke-linejoin:miter;stroke-opacity:1"
       d="m 115.09374,109.80208 2.64584,2.64583 h 14.55208 l 2.64583,-2.64583 -3.96875,-3.96875 h -11.90625 z"
       id="path1094" />
    <path
       style="fill:#ffffff;fill-opacity:0.7706821;stroke:none;stroke-width:0.264583px;stroke-linecap:butt;stroke-linejoin:miter;stroke-opacity:1"
       d="m 113.77083,88.635415 -2.64584,2.645833 v 14.552082 l 2.64584,2.64583 3.96875,-3.96875 V 92.604165 Z"
       id="path1096" />
    <path
       style="fill:#ffffff;fill-opacity:0.7706821;stroke:none;stroke-width:0.264583px;stroke-linecap:butt;stroke-linejoin:miter;stroke-opacity:1"
       d="m 115.09374,87.312498 3.96875,-3.96875 h 11.90625 l 3.96875,3.96875 -3.96875,3.96875 h -11.90625 z"
       id="path1098"
       sodipodi:nodetypes="ccccccc" />
    <path
       style="fill:#ffffff;fill-opacity:0.7706821;stroke:none;stroke-width:0.264583px;stroke-linecap:butt;stroke-linejoin:miter;stroke-opacity:1"
       d="m 149.48958,7.9375002 -2.64584,2.6458328 v 14.552083 l 2.64584,2.645833 3.96875,-3.96875 V 11.90625 Z"
       id="path1104" />
    <path
       style="fill:#ffffff;fill-opacity:0.7706821;stroke:none;stroke-width:0.264583px;stroke-linecap:butt;stroke-linejoin:miter;stroke-opacity:1"
       d="m 171.97916,27.781249 2.64583,-2.645833 V 10.583333 l -2.64583,-2.6458326 -3.96875,3.9687496 v 11.906249 z"
       id="path1108" />
    <path
       style="fill:#ffffff;fill-opacity:0.7706821;stroke:none;stroke-width:0.264583px;stroke-linecap:butt;stroke-linejoin:miter;stroke-opacity:1"
       d="m 171.97916,50.270832 2.64583,-2.645834 V 33.072916 l -2.64583,-2.645833 -3.96875,3.96875 v 11.906249 z"
       id="path1110" />
    <path
       style="fill:#ffffff;fill-opacity:0.7706821;stroke:none;stroke-width:0.264583px;stroke-linecap:butt;stroke-linejoin:miter;stroke-opacity:1"
       d="m 150.81249,29.104166 3.96875,-3.96875 h 11.90625 l 3.96875,3.96875 -3.96875,3.96875 h -11.90625 z"
       id="path1116"
       sodipodi:nodetypes="ccccccc" />
    <path
       style="fill:#ffffff;fill-opacity:0.7706821;stroke:none;stroke-width:0.264583px;stroke-linecap:butt;stroke-linejoin:miter;stroke-opacity:1"
       d="m 149.48958,66.145832 -2.64584,2.645833 v 14.552083 l 2.64584,2.645833 3.96875,-3.96875 V 70.114582 Z"
       id="path1122" />
    <path
       style="fill:#ffffff;fill-opacity:0.7706821;stroke:none;stroke-width:0.264583px;stroke-linecap:butt;stroke-linejoin:miter;stroke-opacity:1"
       d="m 170.65624,64.822915 -2.64583,-2.645833 h -14.55208 l -2.64584,2.645833 3.96875,3.96875 h 11.90625 z"
       id="path1124" />
    <path
       style="fill:#ffffff;fill-opacity:0.7706821;stroke:none;stroke-width:0.264583px;stroke-linecap:butt;stroke-linejoin:miter;stroke-opacity:1"
       d="m 171.97916,85.989581 2.64583,-2.645833 V 68.791665 l -2.64583,-2.645833 -3.96875,3.96875 v 11.906249 z"
       id="path1126" />
    <path
       style="fill:#ffffff;fill-opacity:0.7706821;stroke:none;stroke-width:0.264583px;stroke-linecap:butt;stroke-linejoin:miter;stroke-opacity:1"
       d="m 171.97916,108.47916 2.64583,-2.64583 V 91.281248 l -2.64583,-2.645833 -3.96875,3.96875 v 11.906245 z"
       id="path1128" />
    <path
       style="fill:#ffffff;fill-opacity:0.7706821;stroke:none;stroke-width:0.264583px;stroke-linecap:butt;stroke-linejoin:miter;stroke-opacity:1"
       d="m 150.81249,109.80208 2.64584,2.64583 h 14.55208 l 2.64583,-2.64583 -3.96875,-3.96875 h -11.90625 z"
       id="path1130" />
    <g
       id="g1257"
       style="opacity:0.1326986;stroke:none;stroke-opacity:1;fill:#ffffff;fill-opacity:0.7706821">
      <path
         style="fill:#ffffff;fill-opacity:0.7706821;stroke:none;stroke-width:0.264583px;stroke-linecap:butt;stroke-linejoin:miter;stroke-opacity:1"
         d="m 7.9374997,29.104166 3.9687503,-3.96875 h 11.906249 l 3.96875,3.96875 -3.96875,3.96875 H 11.90625 Z"
         id="path972"
         sodipodi:nodetypes="ccccccc" />
      <path
         style="fill:#ffffff;fill-opacity:0.7706821;stroke:none;stroke-width:0.264583px;stroke-linecap:butt;stroke-linejoin:miter;stroke-opacity:1"
         d="m 42.33333,7.9375002 -2.645833,2.6458328 v 14.552083 l 2.645833,2.645833 3.96875,-3.96875 V 11.90625 Z"
         id="path978" />
      <path
         style="fill:#ffffff;fill-opacity:0.7706821;stroke:none;stroke-width:0.264583px;stroke-linecap:butt;stroke-linejoin:miter;stroke-opacity:1"
         d="M 63.499996,6.6145835 60.854163,3.9687505 H 46.30208 l -2.645833,2.645833 3.96875,3.9687495 h 11.906249 z"
         id="path980" />
      <path
         style="fill:#ffffff;fill-opacity:0.7706821;stroke:none;stroke-width:0.264583px;stroke-linecap:butt;stroke-linejoin:miter;stroke-opacity:1"
         d="m 43.656247,51.593748 2.645833,2.645833 h 14.552083 l 2.645833,-2.645833 -3.96875,-3.96875 H 47.624997 Z"
         id="path986" />
      <path
         style="fill:#ffffff;fill-opacity:0.7706821;stroke:none;stroke-width:0.264583px;stroke-linecap:butt;stroke-linejoin:miter;stroke-opacity:1"
         d="m 42.33333,30.427083 -2.645833,2.645833 v 14.552082 l 2.645833,2.645833 3.96875,-3.968749 V 34.395833 Z"
         id="path988" />
      <path
         style="fill:#ffffff;fill-opacity:0.7706821;stroke:none;stroke-width:0.264583px;stroke-linecap:butt;stroke-linejoin:miter;stroke-opacity:1"
         d="m 43.656247,29.104166 3.96875,-3.96875 h 11.906249 l 3.96875,3.96875 -3.96875,3.96875 H 47.624997 Z"
         id="path990"
         sodipodi:nodetypes="ccccccc" />
      <path
         style="fill:#ffffff;fill-opacity:0.7706821;stroke:none;stroke-width:0.264583px;stroke-linecap:butt;stroke-linejoin:miter;stroke-opacity:1"
         d="m 78.05208,7.9375002 -2.645833,2.6458328 v 14.552083 l 2.645833,2.645833 3.96875,-3.96875 V 11.90625 Z"
         id="path996" />
      <path
         style="fill:#ffffff;fill-opacity:0.7706821;stroke:none;stroke-width:0.264583px;stroke-linecap:butt;stroke-linejoin:miter;stroke-opacity:1"
         d="m 100.54166,50.270832 2.64584,-2.645834 V 33.072916 l -2.64584,-2.645833 -3.968747,3.96875 v 11.906249 z"
         id="path1002" />
      <path
         style="fill:#ffffff;fill-opacity:0.7706821;stroke:none;stroke-width:0.264583px;stroke-linecap:butt;stroke-linejoin:miter;stroke-opacity:1"
         d="m 113.77083,7.9375002 -2.64584,2.6458328 v 14.552083 l 2.64584,2.645833 3.96875,-3.96875 V 11.90625 Z"
         id="path1014" />
      <path
         style="fill:#ffffff;fill-opacity:0.7706821;stroke:none;stroke-width:0.264583px;stroke-linecap:butt;stroke-linejoin:miter;stroke-opacity:1"
         d="m 113.77083,30.427083 -2.64584,2.645833 v 14.552082 l 2.64584,2.645833 3.96875,-3.968749 V 34.395833 Z"
         id="path1024" />
      <path
         style="fill:#ffffff;fill-opacity:0.7706821;stroke:none;stroke-width:0.264583px;stroke-linecap:butt;stroke-linejoin:miter;stroke-opacity:1"
         d="m 29.104166,85.989581 2.645833,-2.645833 V 68.791665 l -2.645833,-2.645833 -3.96875,3.96875 v 11.906249 z"
         id="path1036" />
      <path
         style="fill:#ffffff;fill-opacity:0.7706821;stroke:none;stroke-width:0.264583px;stroke-linecap:butt;stroke-linejoin:miter;stroke-opacity:1"
         d="m 6.6145829,88.635415 -2.645833,2.645833 v 14.552082 l 2.645833,2.64583 3.9687501,-3.96875 V 92.604165 Z"
         id="path1042" />
      <path
         style="fill:#ffffff;fill-opacity:0.7706821;stroke:none;stroke-width:0.264583px;stroke-linecap:butt;stroke-linejoin:miter;stroke-opacity:1"
         d="m 64.822913,85.989581 2.645833,-2.645833 V 68.791665 l -2.645833,-2.645833 -3.96875,3.96875 v 11.906249 z"
         id="path1054" />
      <path
         style="fill:#ffffff;fill-opacity:0.7706821;stroke:none;stroke-width:0.264583px;stroke-linecap:butt;stroke-linejoin:miter;stroke-opacity:1"
         d="m 78.05208,66.145832 -2.645833,2.645833 v 14.552083 l 2.645833,2.645833 3.96875,-3.96875 V 70.114582 Z"
         id="path1068" />
      <path
         style="fill:#ffffff;fill-opacity:0.7706821;stroke:none;stroke-width:0.264583px;stroke-linecap:butt;stroke-linejoin:miter;stroke-opacity:1"
         d="m 79.374997,109.80208 2.645833,2.64583 h 14.552083 l 2.645833,-2.64583 -3.96875,-3.96875 H 83.343747 Z"
         id="path1076" />
      <path
         style="fill:#ffffff;fill-opacity:0.7706821;stroke:none;stroke-width:0.264583px;stroke-linecap:butt;stroke-linejoin:miter;stroke-opacity:1"
         d="m 78.05208,88.635415 -2.645833,2.645833 v 14.552082 l 2.645833,2.64583 3.96875,-3.96875 V 92.604165 Z"
         id="path1078" />
      <path
         style="fill:#ffffff;fill-opacity:0.7706821;stroke:none;stroke-width:0.264583px;stroke-linecap:butt;stroke-linejoin:miter;stroke-opacity:1"
         d="m 79.374997,87.312498 3.96875,-3.96875 h 11.906249 l 3.96875,3.96875 -3.96875,3.96875 H 83.343747 Z"
         id="path1080"
         sodipodi:nodetypes="ccccccc" />
      <path
         style="fill:#ffffff;fill-opacity:0.7706821;stroke:none;stroke-width:0.264583px;stroke-linecap:butt;stroke-linejoin:miter;stroke-opacity:1"
         d="m 170.65624,6.6145835 -2.64583,-2.645833 h -14.55208 l -2.64584,2.645833 3.96875,3.9687495 h 11.90625 z"
         id="path1106" />
      <path
         style="fill:#ffffff;fill-opacity:0.7706821;stroke:none;stroke-width:0.264583px;stroke-linecap:butt;stroke-linejoin:miter;stroke-opacity:1"
         d="m 150.81249,51.593748 2.64584,2.645833 h 14.55208 l 2.64583,-2.645833 -3.96875,-3.96875 h -11.90625 z"
         id="path1112" />
      <path
         style="fill:#ffffff;fill-opacity:0.7706821;stroke:none;stroke-width:0.264583px;stroke-linecap:butt;stroke-linejoin:miter;stroke-opacity:1"
         d="m 149.48958,30.427083 -2.64584,2.645833 v 14.552082 l 2.64584,2.645833 3.96875,-3.968749 V 34.395833 Z"
         id="path1114" />
      <path
         style="fill:#ffffff;fill-opacity:0.7706821;stroke:none;stroke-width:0.264583px;stroke-linecap:butt;stroke-linejoin:miter;stroke-opacity:1"
         d="m 149.48958,88.635415 -2.64584,2.645833 v 14.552082 l 2.64584,2.64583 3.96875,-3.96875 V 92.604165 Z"
         id="path1132" />
    </g>
    <path
       style="fill:#ffffff;fill-opacity:0.7706821;stroke:none;stroke-width:0.264583px;stroke-linecap:butt;stroke-linejoin:miter;stroke-opacity:1"
       d="m 150.81249,87.312498 3.96875,-3.96875 h 11.90625 l 3.96875,3.96875 -3.96875,3.96875 h -11.90625 z"
       id="path1134"
       sodipodi:nodetypes="ccccccc" />
  </g>
</svg>
