<?xml version="1.0" encoding="UTF-8" standalone="no"?>
<svg
   xmlns:dc="http://purl.org/dc/elements/1.1/"
   xmlns:cc="http://creativecommons.org/ns#"
   xmlns:rdf="http://www.w3.org/1999/02/22-rdf-syntax-ns#"
   xmlns:svg="http://www.w3.org/2000/svg"
   xmlns="http://www.w3.org/2000/svg"
   xmlns:sodipodi="http://sodipodi.sourceforge.net/DTD/sodipodi-0.dtd"
   xmlns:inkscape="http://www.inkscape.org/namespaces/inkscape"
   width="256"
   height="256"
   viewBox="0 0 67.733331 67.733331"
   version="1.1"
   id="svg8"
   inkscape:version="1.0.2 (e86c870879, 2021-01-15)"
   sodipodi:docname="sorry2.svg">
  <defs
     id="defs2" />
  <sodipodi:namedview
     id="base"
     pagecolor="#ffffff"
     bordercolor="#666666"
     borderopacity="1.0"
     inkscape:pageopacity="0.0"
     inkscape:pageshadow="2"
     inkscape:zoom="1.979899"
     inkscape:cx="117.46026"
     inkscape:cy="134.3416"
     inkscape:document-units="px"
     inkscape:current-layer="layer1"
     inkscape:document-rotation="0"
     showgrid="true"
     units="px"
     inkscape:window-width="1343"
     inkscape:window-height="908"
     inkscape:window-x="123"
     inkscape:window-y="26"
     inkscape:window-maximized="0">
    <inkscape:grid
       type="xygrid"
       id="grid1402" />
  </sodipodi:namedview>
  <metadata
     id="metadata5">
    <rdf:RDF>
      <cc:Work
         rdf:about="">
        <dc:format>image/svg+xml</dc:format>
        <dc:type
           rdf:resource="http://purl.org/dc/dcmitype/StillImage" />
        <dc:title></dc:title>
      </cc:Work>
    </rdf:RDF>
  </metadata>
  <g
     inkscape:label="Layer 1"
     inkscape:groupmode="layer"
     id="layer1">
    <rect
       style="opacity:1;fill:#000000;fill-opacity:0.823442;stroke-width:8.46317;stroke-linecap:round;stroke-linejoin:round;stroke-miterlimit:4;stroke-dasharray:none;stroke-dashoffset:3.5007;paint-order:stroke markers fill"
       id="rect892"
       width="64.822914"
       height="64.822914"
       x="1.4552084"
       y="1.4552084" />
    <g
       aria-label="HOPE YOU
ENJOYED
IT A BIT
:)"
       id="text880"
       style="font-weight:bold;font-size:11.9944px;line-height:1;font-family:JuliaMono;-inkscape-font-specification:'JuliaMono, Bold';fill:#ffffff;fill-opacity:0.823442;stroke-width:0.264583">
      <path
         d="M 7.5270258,20.217039 H 5.9917426 v -8.69594 h 1.5352832 v 3.478376 h 2.3628968 v -3.478376 h 1.5352834 v 8.69594 H 9.8899226 V 16.354842 H 7.5270258 Z"
         style="font-size:11.9944px;fill:#ffffff;fill-opacity:0.823442;stroke-width:0.264583"
         id="path978" />
      <path
         d="m 15.899099,20.396955 q -1.109482,0 -1.835143,-0.59972 -0.719664,-0.59972 -1.061505,-1.64923 -0.34184,-1.04951 -0.34184,-2.428866 0,-1.319384 0.389818,-2.29093 0.395815,-0.977544 1.127473,-1.4993 0.731659,-0.527754 1.721197,-0.527754 0.995535,0 1.727193,0.515759 0.731659,0.509762 1.121477,1.475311 0.389818,0.96555 0.389818,2.302925 0,1.391351 -0.341841,2.446858 -0.335843,1.055507 -1.061504,1.655227 -0.719664,0.59972 -1.835143,0.59972 z m -0.01199,-1.367361 q 0.869594,0 1.271407,-0.893583 0.407809,-0.893583 0.407809,-2.344906 0,-0.863596 -0.19191,-1.553274 -0.185913,-0.695676 -0.55774,-1.097488 -0.371826,-0.40781 -0.905577,-0.40781 -0.539748,0 -0.917571,0.389818 -0.377824,0.383821 -0.569734,1.079496 -0.191911,0.689678 -0.191911,1.613247 0,1.409342 0.395815,2.31492 0.401813,0.89958 1.259412,0.89958 z"
         style="font-size:11.9944px;fill:#ffffff;fill-opacity:0.823442;stroke-width:0.264583"
         id="path980" />
      <path
         d="m 20.265042,20.217039 v -8.69594 h 2.830679 q 1.355367,0 2.164989,0.569734 0.809622,0.569734 0.809622,1.94909 0,0.929566 -0.401812,1.517292 -0.401813,0.581728 -1.061505,0.839608 -0.659692,0.257879 -1.463317,0.257879 h -1.319384 v 3.562337 z m 2.410875,-4.833743 q 0.605717,0 0.965549,-0.07796 0.359832,-0.07796 0.581728,-0.371826 0.227894,-0.293863 0.227894,-0.905577 0,-0.737656 -0.40781,-1.00753 -0.401812,-0.275871 -1.079496,-0.275871 h -1.139468 v 2.638768 z"
         style="font-size:11.9944px;fill:#ffffff;fill-opacity:0.823442;stroke-width:0.264583"
         id="path982" />
      <path
         d="m 33.135016,20.217039 h -5.625373 v -8.69594 h 5.457452 v 1.319384 h -3.89818 v 2.218964 h 3.706269 v 1.319384 h -3.706269 v 2.530819 h 4.066101 z"
         style="font-size:11.9944px;fill:#ffffff;fill-opacity:0.823442;stroke-width:0.264583"
         id="path984" />
      <path
         d="m 45.525194,20.217039 h -1.667222 v -3.346437 l -2.242953,-5.349503 h 1.69121 l 1.403345,3.682281 1.391351,-3.682281 h 1.655227 l -2.230958,5.349503 z"
         style="font-size:11.9944px;fill:#ffffff;fill-opacity:0.823442;stroke-width:0.264583"
         id="path986" />
      <path
         d="m 51.88221,20.396955 q -1.109482,0 -1.835143,-0.59972 -0.719664,-0.59972 -1.061504,-1.64923 -0.341841,-1.04951 -0.341841,-2.428866 0,-1.319384 0.389818,-2.29093 0.395815,-0.977544 1.127474,-1.4993 0.731658,-0.527754 1.721196,-0.527754 0.995535,0 1.727194,0.515759 0.731658,0.509762 1.121476,1.475311 0.389818,0.96555 0.389818,2.302925 0,1.391351 -0.34184,2.446858 -0.335843,1.055507 -1.061505,1.655227 -0.719664,0.59972 -1.835143,0.59972 z m -0.01199,-1.367361 q 0.869594,0 1.271406,-0.893583 0.40781,-0.893583 0.40781,-2.344906 0,-0.863596 -0.191911,-1.553274 -0.185913,-0.695676 -0.557739,-1.097488 -0.371827,-0.40781 -0.905577,-0.40781 -0.539748,0 -0.917572,0.389818 -0.377824,0.383821 -0.569734,1.079496 -0.19191,0.689678 -0.19191,1.613247 0,1.409342 0.395815,2.31492 0.401812,0.89958 1.259412,0.89958 z"
         style="font-size:11.9944px;fill:#ffffff;fill-opacity:0.823442;stroke-width:0.264583"
         id="path988" />
      <path
         d="m 59.078831,20.348978 q -1.085493,0 -1.727193,-0.389818 -0.635704,-0.395816 -0.917572,-1.193443 -0.281868,-0.803625 -0.281868,-2.087026 v -5.169586 h 1.523288 v 5.109614 q 0,0.893583 0.131939,1.415339 0.137935,0.51576 0.44979,0.755648 0.317851,0.239888 0.869594,0.239888 0.515759,0 0.803625,-0.233891 0.293862,-0.239888 0.413806,-0.755647 0.125942,-0.521757 0.125942,-1.421337 v -5.109614 h 1.535283 v 5.169586 q 0,1.313387 -0.251883,2.105017 -0.251882,0.785634 -0.887585,1.175452 -0.635703,0.389818 -1.787166,0.389818 z"
         style="font-size:11.9944px;fill:#ffffff;fill-opacity:0.823442;stroke-width:0.264583"
         id="path990" />
      <path
         d="M 11.54515,32.211439 H 5.9197762 v -8.69594 h 5.4574518 v 1.319384 H 7.4790482 v 2.218964 h 3.7062698 v 1.319384 H 7.4790482 V 30.90405 H 11.54515 Z"
         style="font-size:11.9944px;fill:#ffffff;fill-opacity:0.823442;stroke-width:0.264583"
         id="path992" />
      <path
         d="m 14.627692,32.211439 h -1.487305 v -8.69594 h 1.943093 l 1.703204,4.989671 0.347838,1.055507 v -6.045178 h 1.4993 v 8.69594 h -1.823149 l -2.182981,-5.937228 z"
         style="font-size:11.9944px;fill:#ffffff;fill-opacity:0.823442;stroke-width:0.264583"
         id="path994" />
      <path
         d="m 23.035749,32.331383 q -0.833611,0 -1.481309,-0.335843 -0.647697,-0.335843 -1.013526,-0.959552 -0.359832,-0.629706 -0.359832,-1.475311 h 1.463316 q 0,0.431798 0.179916,0.773639 0.185914,0.335843 0.503765,0.527753 0.317852,0.185913 0.70767,0.185913 0.677683,0 1.001532,-0.44979 0.329846,-0.455787 0.329846,-1.193442 v -4.617844 h -3.406409 v -1.271407 h 4.893715 v 5.901245 q 0,0.935563 -0.329846,1.589258 -0.329846,0.653695 -0.965549,0.989538 -0.629706,0.335843 -1.523289,0.335843 z"
         style="font-size:11.9944px;fill:#ffffff;fill-opacity:0.823442;stroke-width:0.264583"
         id="path996" />
      <path
         d="m 30.292344,32.391355 q -1.109482,0 -1.835144,-0.59972 -0.719664,-0.59972 -1.061504,-1.64923 -0.34184,-1.04951 -0.34184,-2.428866 0,-1.319384 0.389818,-2.29093 0.395815,-0.977544 1.127473,-1.4993 0.731659,-0.527754 1.721197,-0.527754 0.995535,0 1.727193,0.515759 0.731659,0.509762 1.121477,1.475312 0.389818,0.965549 0.389818,2.302924 0,1.391351 -0.341841,2.446858 -0.335843,1.055507 -1.061504,1.655227 -0.719664,0.59972 -1.835143,0.59972 z m -0.01199,-1.367361 q 0.869594,0 1.271407,-0.893583 0.407809,-0.893583 0.407809,-2.344905 0,-0.863597 -0.19191,-1.553275 -0.185913,-0.695675 -0.55774,-1.097488 -0.371826,-0.407809 -0.905577,-0.407809 -0.539748,0 -0.917572,0.389818 -0.377823,0.38382 -0.569734,1.079496 -0.19191,0.689678 -0.19191,1.613246 0,1.409342 0.395815,2.31492 0.401813,0.89958 1.259412,0.89958 z"
         style="font-size:11.9944px;fill:#ffffff;fill-opacity:0.823442;stroke-width:0.264583"
         id="path998" />
      <path
         d="m 38.328573,32.211439 h -1.667222 v -3.346437 l -2.242953,-5.349503 h 1.691211 l 1.403344,3.682281 1.391351,-3.682281 h 1.655227 l -2.230958,5.349503 z"
         style="font-size:11.9944px;fill:#ffffff;fill-opacity:0.823442;stroke-width:0.264583"
         id="path1000" />
      <path
         d="m 47.528258,32.211439 h -5.625373 v -8.69594 h 5.457452 v 1.319384 h -3.89818 v 2.218964 h 3.706269 v 1.319384 h -3.706269 v 2.530819 h 4.066101 z"
         style="font-size:11.9944px;fill:#ffffff;fill-opacity:0.823442;stroke-width:0.264583"
         id="path1002" />
      <path
         d="m 49.075521,32.211439 v -8.69594 h 1.88312 q 1.34937,0 2.20697,0.413807 0.8576,0.413807 1.283401,1.355367 0.431798,0.941561 0.431798,2.524821 0,1.583261 -0.401812,2.542813 -0.395815,0.959552 -1.277404,1.409342 -0.875591,0.44979 -2.338908,0.44979 z m 1.955087,-1.307389 q 0.785633,0 1.259412,-0.347838 0.479776,-0.347838 0.689678,-1.025521 0.209902,-0.683681 0.209902,-1.721197 0,-1.469314 -0.473779,-2.224961 -0.473779,-0.761644 -1.577264,-0.761644 h -0.515759 v 6.081161 z"
         style="font-size:11.9944px;fill:#ffffff;fill-opacity:0.823442;stroke-width:0.264583"
         id="path1004" />
      <path
         d="M 10.885458,44.205839 H 6.5075018 v -1.235423 h 1.439328 v -6.225094 h -1.319384 v -1.235423 h 4.1380682 v 1.235423 H 9.482113 v 6.225094 h 1.403345 z"
         style="font-size:11.9944px;fill:#ffffff;fill-opacity:0.823442;stroke-width:0.264583"
         id="path1006" />
      <path
         d="m 16.678735,44.205839 h -1.547278 v -7.328578 h -2.326913 v -1.367362 h 6.18911 v 1.367362 h -2.314919 z"
         style="font-size:11.9944px;fill:#ffffff;fill-opacity:0.823442;stroke-width:0.264583"
         id="path1008" />
      <path
         d="m 28.601133,44.205839 h -1.415339 l 2.063037,-8.69594 h 2.111014 l 2.051043,8.69594 H 31.875604 L 31.37184,42.154797 h -2.290931 z m 1.619244,-7.220629 -0.79163,3.922169 h 1.739188 L 30.36431,36.98521 Z"
         style="font-size:11.9944px;fill:#ffffff;fill-opacity:0.823442;stroke-width:0.264583"
         id="path1010" />
      <path
         d="m 41.794935,44.205839 v -8.69594 h 2.39888 q 1.253415,0 1.979076,0.569734 0.731659,0.563737 0.731659,1.697208 0,0.797627 -0.275872,1.211434 -0.269874,0.413807 -0.827613,0.635703 0.79163,0.125942 1.307389,0.647698 0.51576,0.515759 0.51576,1.559272 0,1.265409 -0.869594,1.823149 -0.869594,0.551742 -2.224962,0.551742 z m 2.218964,-5.025653 q 0.659692,0 1.019524,-0.275872 0.359832,-0.281868 0.359832,-0.971546 0,-0.611714 -0.335843,-0.89958 -0.329846,-0.287866 -0.89958,-0.287866 h -0.851603 v 2.434864 z m 0.335843,3.826213 q 0.455787,0 0.797628,-0.08996 0.347838,-0.08996 0.581728,-0.371826 0.239888,-0.287866 0.239888,-0.833611 0,-0.755647 -0.419804,-1.055507 -0.419804,-0.29986 -1.067501,-0.29986 h -1.163457 v 2.650762 z"
         style="font-size:11.9944px;fill:#ffffff;fill-opacity:0.823442;stroke-width:0.264583"
         id="path1012" />
      <path
         d="m 54.065191,44.205839 h -4.377956 v -1.235423 h 1.439328 v -6.225094 h -1.319384 v -1.235423 h 4.138068 v 1.235423 h -1.283401 v 6.225094 h 1.403345 z"
         style="font-size:11.9944px;fill:#ffffff;fill-opacity:0.823442;stroke-width:0.264583"
         id="path1014" />
      <path
         d="M 59.858467,44.205839 H 58.31119 v -7.328578 h -2.326914 v -1.367362 h 6.18911 v 1.367362 h -2.314919 z"
         style="font-size:11.9944px;fill:#ffffff;fill-opacity:0.823442;stroke-width:0.264583"
         id="path1016" />
      <path
         d="m 8.7144714,56.200239 q -0.5937228,0 -0.89958,-0.29986 -0.29986,-0.305857 -0.29986,-0.89958 0,-1.187445 1.19944,-1.187445 1.19944,0 1.19944,1.187445 0,0.593723 -0.3058572,0.89958 -0.29986,0.29986 -0.8935828,0.29986 z m 0,-4.222029 q -0.5937228,0 -0.89958,-0.29986 -0.29986,-0.305857 -0.29986,-0.89958 0,-1.187445 1.19944,-1.187445 1.19944,0 1.19944,1.187445 0,0.593723 -0.3058572,0.89958 -0.29986,0.29986 -0.8935828,0.29986 z"
         style="font-size:11.9944px;fill:#ffffff;fill-opacity:0.823442;stroke-width:0.264583"
         id="path1018" />
      <path
         d="m 13.77609,59.114878 q 0.665689,-0.947557 1.181448,-2.045045 0.51576,-1.09149 0.803625,-2.194975 0.293863,-1.103485 0.293863,-2.05704 0,-1.643232 -0.593723,-3.346437 -0.587725,-1.703205 -1.685213,-3.322449 h 1.163457 q 1.205437,1.571266 1.901112,3.382421 0.701673,1.811154 0.701673,3.478376 0,1.061504 -0.323849,2.069034 -0.323849,1.001532 -0.881589,1.94909 -0.551742,0.947557 -1.385353,2.087025 z"
         style="font-size:11.9944px;fill:#ffffff;fill-opacity:0.823442;stroke-width:0.264583"
         id="path1020" />
    </g>
  </g>
</svg>
